<svg width="436" height="59" viewBox="0 0 436 59" fill="none" xmlns="http://www.w3.org/2000/svg">
<path d="M20.4233 24.4392C20.4233 22.956 21.6425 21.7536 23.1464 21.7536H26.8226C28.3265 21.7536 29.5457 22.956 29.5457 24.4392V28.0648C29.5457 29.548 28.3265 30.7504 26.8226 30.7504H23.1464C21.6425 30.7504 20.4233 29.548 20.4233 28.0648V24.4392Z" fill="#EBEAE4"/>
<path d="M29.5457 2.68563C29.5457 1.2024 30.7649 0 32.2688 0H35.945C37.4489 0 38.6681 1.2024 38.6681 2.68563V15.3081C38.6681 16.7913 37.4489 17.9937 35.945 17.9937H32.2688C30.7649 17.9937 29.5457 16.7913 29.5457 15.3081V2.68563Z" fill="#EBEAE4"/>
<path d="M0 51.1612C0 49.678 1.21918 48.4756 2.7231 48.4756H47.382C48.8859 48.4756 50.1051 49.678 50.1051 51.1612V54.7868C50.1051 56.27 48.8859 57.4724 47.382 57.4724H2.7231C1.21917 57.4724 0 56.27 0 54.7868V51.1612Z" fill="#EBEAE4"/>
<path d="M23.1783 1.89902C24.2417 0.850222 25.9659 0.850222 27.0293 1.89902L48.2101 22.7883C49.2735 23.8371 49.2735 25.5375 48.2101 26.5863L45.6106 29.15C44.5472 30.1988 42.823 30.1988 41.7596 29.15L20.5788 8.26076C19.5154 7.21196 19.5154 5.51151 20.5788 4.46271L23.1783 1.89902Z" fill="#EBEAE4"/>
<path d="M1.87463 26.5926C0.811195 25.5438 0.811195 23.8433 1.87463 22.7945L23.0554 1.90524C24.1189 0.856437 25.843 0.856437 26.9065 1.90524L29.5059 4.46892C30.5694 5.51773 30.5694 7.21817 29.5059 8.26697L8.32514 29.1562C7.2617 30.205 5.53753 30.205 4.47409 29.1562L1.87463 26.5926Z" fill="#EBEAE4"/>
<path d="M84.0807 3.67931C66.0429 3.67931 63.6117 3.67931 61.2589 3.67931V30.7504C63.6117 30.7504 66.0429 30.7504 68.4349 30.7504V10.0604H76.9048V30.7504C79.2968 30.7504 81.6888 30.7504 84.0807 30.7504V3.67931Z" fill="#EBEAE4"/>
<path d="M99.6764 30.7504V23.828H104.735C117.871 23.828 117.871 3.71798 104.735 3.67931C100.696 3.67931 96.6178 3.67931 92.6573 3.67931C92.6573 12.7288 92.6573 21.7396 92.6573 30.7504C94.9708 30.7504 97.3236 30.7504 99.6764 30.7504ZM104.696 17.6016H99.6764C99.6764 15.3972 99.6764 12.0714 99.6764 9.86699C101.284 9.86699 103.049 9.82832 104.696 9.86699C108.774 9.90566 108.538 17.6016 104.696 17.6016Z" fill="#EBEAE4"/>
<path d="M147.921 17.2535C147.921 -1.46421 119.766 -1.46421 119.766 17.2535C119.766 36.01 147.921 36.01 147.921 17.2535ZM126.982 17.2535C126.982 7.50794 140.745 7.50794 140.745 17.2535C140.745 27.0765 126.982 27.0765 126.982 17.2535Z" fill="#EBEAE4"/>
<path d="M178.451 17.1762C178.451 21.0435 175.471 22.049 172.608 22.2037V12.1874C175.628 12.3034 178.451 13.3089 178.451 17.1762ZM160.256 17.1762C160.256 13.3089 163.08 12.3034 166.099 12.1874V22.2037C163.236 22.049 160.256 21.0435 160.256 17.1762ZM166.021 30.8664H172.687V28.5847C179.784 28.3527 185.627 25.6069 185.627 17.1762C185.627 8.78415 179.823 6.07704 172.726 5.845V3.56329H165.981V5.845C158.884 6.07704 153.08 8.78415 153.08 17.1762C153.08 25.6069 158.923 28.3527 166.021 28.5847V30.8664Z" fill="#EBEAE4"/>
<path d="M209.62 3.67931C203.189 3.67931 198.837 3.67931 192.484 3.67931C192.484 12.6515 192.484 21.7009 192.484 30.7504C198.837 30.7504 203.542 30.7504 209.973 30.7504C209.973 28.7008 209.973 26.6124 209.973 24.6014C205.856 24.6014 203.503 24.6014 199.464 24.6014C199.464 22.9771 199.464 21.4302 199.464 19.8446H208.797C208.797 17.795 208.797 15.7453 208.797 13.6956H199.464V9.86699C203.503 9.86699 205.542 9.86699 209.62 9.86699C209.62 7.77865 209.62 5.69031 209.62 3.67931Z" fill="#EBEAE4"/>
<path d="M215.918 17.2149C215.957 26.419 223.016 31.0598 229.995 31.0211C235.838 31.0211 241.995 28.0046 243.014 20.3474C240.622 20.3474 238.465 20.3474 236.113 20.3474C235.368 23.2479 232.976 24.7174 229.995 24.7174C225.839 24.6788 223.172 21.1982 223.172 17.2149C223.172 12.7288 225.878 9.67363 229.995 9.67363C232.936 9.67363 235.015 10.9112 235.995 13.6569C238.387 13.6569 240.504 13.6569 242.896 13.6569C241.838 6.42509 235.681 3.36992 229.995 3.36992C223.016 3.36992 215.957 8.01069 215.918 17.2149Z" fill="#EBEAE4"/>
<path d="M248.313 17.2149C248.352 26.419 255.411 31.0598 262.39 31.0211C268.233 31.0211 274.389 28.0046 275.409 20.3474C273.017 20.3474 270.86 20.3474 268.508 20.3474C267.763 23.2479 265.371 24.7174 262.39 24.7174C258.234 24.6788 255.567 21.1982 255.567 17.2149C255.567 12.7288 258.273 9.67363 262.39 9.67363C265.331 9.67363 267.41 10.9112 268.39 13.6569C270.782 13.6569 272.899 13.6569 275.291 13.6569C274.233 6.42509 268.076 3.36992 262.39 3.36992C255.411 3.36992 248.352 8.01069 248.313 17.2149Z" fill="#EBEAE4"/>
<path d="M298.746 17.4469V30.7504C301.177 30.7504 303.608 30.7504 306 30.7504V3.56329H303.451L289.57 16.9442V3.67931C287.178 3.67931 284.786 3.67931 282.394 3.67931V30.7891H284.904L298.746 17.4469Z" fill="#EBEAE4"/>
<path d="M341.065 17.2535C341.065 -1.46421 312.91 -1.46421 312.91 17.2535C312.91 36.01 341.065 36.01 341.065 17.2535ZM320.126 17.2535C320.126 7.50794 333.889 7.50794 333.889 17.2535C333.889 27.0765 320.126 27.0765 320.126 17.2535Z" fill="#EBEAE4"/>
<path d="M370.772 3.67931C368.38 3.67931 365.988 3.67931 363.596 3.67931V13.5023H355.126V3.67931C352.734 3.67931 350.302 3.67931 347.95 3.67931V30.7504C350.302 30.7504 352.734 30.7504 355.126 30.7504V19.8833H363.596V30.7504C365.988 30.7504 368.38 30.7504 370.772 30.7504V3.67931Z" fill="#EBEAE4"/>
<path d="M396.798 30.7504H403.66V29.7449L391.269 3.33125H388.249L375.897 29.7449V30.7504H382.76L384.367 27.3472H395.19L396.798 30.7504ZM392.916 21.4302H386.642L389.739 14.3144L392.916 21.4302Z" fill="#EBEAE4"/>
<path d="M420.832 14.8945L427.891 30.7504H434.753V29.7449L422.362 3.33125H419.342L406.99 29.7449V30.7504H413.852L420.832 14.8945Z" fill="#EBEAE4"/>
<path d="M63.994 57.4724H67.7781L74.2874 44.4589V43.9369H70.4837L68.131 48.9257H68.0329L65.4449 43.9369H61.5236V44.4589L66.1507 52.735L63.994 57.105V57.4724Z" fill="#EBEAE4"/>
<path d="M92.0319 43.9369C83.013 43.9369 81.7974 43.9369 80.621 43.9369V57.4724C81.7974 57.4724 83.013 57.4724 84.2089 57.4724V47.1274H88.4439V57.4724C89.6399 57.4724 90.8359 57.4724 92.0319 57.4724V43.9369Z" fill="#EBEAE4"/>
<path d="M103.457 57.4724V54.0112H105.986C112.554 54.0112 112.554 43.9562 105.986 43.9369C103.967 43.9369 101.928 43.9369 99.9473 43.9369C99.9473 48.4616 99.9473 52.967 99.9473 57.4724C101.104 57.4724 102.28 57.4724 103.457 57.4724ZM105.966 50.898H103.457C103.457 49.7958 103.457 48.1329 103.457 47.0307C104.261 47.0307 105.143 47.0114 105.966 47.0307C108.006 47.05 107.888 50.898 105.966 50.898Z" fill="#EBEAE4"/>
<path d="M125.874 57.4724H129.305V56.9697L123.109 43.7628H121.599L115.423 56.9697V57.4724H118.855L119.658 55.7708H125.07L125.874 57.4724ZM123.933 52.8123H120.796L122.345 49.2544L123.933 52.8123Z" fill="#EBEAE4"/>
<path d="M145.655 48.0942C145.655 45.7545 143.753 43.9369 141.381 43.9369H135.518V57.4724H141.949C144.753 57.4724 146.204 55.5581 146.223 53.199C146.223 52.0002 145.694 50.9947 144.576 50.4339C145.243 49.8925 145.655 48.9063 145.655 48.0942ZM141.694 52.0969C143.106 52.0969 143.126 54.3979 141.714 54.3979H138.91V52.0969H141.694ZM141.106 47.0307C142.518 47.0307 142.518 49.2157 141.126 49.2157H138.91V47.0307H141.106Z" fill="#EBEAE4"/>
<path d="M158.566 49.5444L162.096 57.4724H165.527V56.9697L159.331 43.7628H157.821L151.645 56.9697V57.4724H155.077L158.566 49.5444Z" fill="#EBEAE4"/>
<path d="M170.387 56.9697V57.4724H174.309L176.661 53.4891H178.485V57.4724C179.661 57.4724 180.857 57.4724 181.994 57.4724C181.994 52.967 181.994 48.4616 181.994 43.9369C180.014 43.9369 177.975 43.9369 175.975 43.9369C170.583 43.9562 169.603 50.3566 173.074 52.677L170.387 56.9697ZM175.975 50.3759C174.073 50.3759 173.975 47.05 175.975 47.0307C176.799 47.0114 177.661 47.0307 178.485 47.0307C178.485 48.1329 178.485 49.2931 178.485 50.3759H175.975Z" fill="#EBEAE4"/>
<path d="M209.113 50.724C209.113 42.0032 196.957 41.3458 195.271 48.8483H193.487V43.9369H189.899V57.4724H193.487V52.0389H195.173C196.428 60.0635 209.113 59.6381 209.113 50.724ZM198.644 50.724C198.644 45.8512 205.525 45.8512 205.525 50.724C205.525 55.6354 198.644 55.6354 198.644 50.724Z" fill="#EBEAE4"/>
<path d="M216.196 57.4724H232.097V59H234.979V54.4753H233.587V43.9369H229.999V54.2819H226.685V43.9369H223.097V54.2819H219.784V43.9369H216.196V57.4724Z" fill="#EBEAE4"/>
<path d="M251.044 57.4724H254.475V56.9697L248.28 43.7628H246.77L240.594 56.9697V57.4724H244.025L244.829 55.7708H250.24L251.044 57.4724ZM249.103 52.8123H245.966L247.515 49.2544L249.103 52.8123Z" fill="#EBEAE4"/>
<path d="M259.757 56.9697V57.4724H263.678L266.031 53.4891H267.855V57.4724C269.031 57.4724 270.227 57.4724 271.364 57.4724C271.364 52.967 271.364 48.4616 271.364 43.9369C269.384 43.9369 267.345 43.9369 265.345 43.9369C259.953 43.9562 258.973 50.3566 262.443 52.677L259.757 56.9697ZM265.345 50.3759C263.443 50.3759 263.345 47.05 265.345 47.0307C266.168 47.0114 267.031 47.0307 267.855 47.0307C267.855 48.1329 267.855 49.2931 267.855 50.3759H265.345Z" fill="#EBEAE4"/>
<path d="M292.668 57.4724V52.3096C293.119 52.3096 293.55 52.3096 294.02 52.2322L297.04 57.4724H300.942V56.931L297.216 50.9753C299.942 49.2544 299.863 46.702 299.863 43.9369C298.648 43.9369 297.452 43.9369 296.256 43.9369C296.256 46.4699 296.432 49.061 292.923 49.061H292.668V43.9369C291.452 43.9369 290.276 43.9369 289.099 43.9369V57.4724C290.276 57.4724 291.452 57.4724 292.668 57.4724Z" fill="#EBEAE4"/>
<path d="M320.607 50.724C320.607 41.3651 306.529 41.3651 306.529 50.724C306.529 60.1022 320.607 60.1022 320.607 50.724ZM310.137 50.724C310.137 45.8512 317.019 45.8512 317.019 50.724C317.019 55.6354 310.137 55.6354 310.137 50.724Z" fill="#EBEAE4"/>
<path d="M334.303 49.7765L328.931 43.8982H327.637V57.4724C328.833 57.4724 330.029 57.4724 331.225 57.4724V51.4394L334.127 54.4559H334.519L337.44 51.4394V57.4724C338.636 57.4724 339.832 57.4724 341.028 57.4724V43.8982H339.773L334.303 49.7765Z" fill="#EBEAE4"/>
<path d="M360.367 43.9369C351.348 43.9369 350.132 43.9369 348.956 43.9369V57.4724C350.132 57.4724 351.348 57.4724 352.544 57.4724V47.1274H356.779V57.4724C357.975 57.4724 359.171 57.4724 360.367 57.4724V43.9369Z" fill="#EBEAE4"/>
<path d="M377.007 57.4724H380.438V56.9697L374.243 43.7628H372.733L366.557 56.9697V57.4724H369.988L370.792 55.7708H376.203L377.007 57.4724ZM375.066 52.8123H371.929L373.478 49.2544L375.066 52.8123Z" fill="#EBEAE4"/>
<path d="M398.082 43.9369C396.886 43.9369 395.69 43.9369 394.494 43.9369V48.8483H390.259V43.9369C389.063 43.9369 387.848 43.9369 386.672 43.9369V57.4724C387.848 57.4724 389.063 57.4724 390.259 57.4724V52.0389H394.494V57.4724C395.69 57.4724 396.886 57.4724 398.082 57.4724V43.9369Z" fill="#EBEAE4"/>
<path d="M414.193 50.8207V57.4724C415.409 57.4724 416.624 57.4724 417.82 57.4724V43.8788H416.546L409.605 50.5693V43.9369C408.409 43.9369 407.213 43.9369 406.017 43.9369V57.4917H407.272L414.193 50.8207Z" fill="#EBEAE4"/>
<path d="M424.393 56.9697V57.4724H428.314L430.667 53.4891H432.49V57.4724C433.667 57.4724 434.863 57.4724 436 57.4724C436 52.967 436 48.4616 436 43.9369C434.02 43.9369 431.981 43.9369 429.981 43.9369C424.589 43.9562 423.609 50.3566 427.079 52.677L424.393 56.9697ZM429.981 50.3759C428.079 50.3759 427.981 47.05 429.981 47.0307C430.804 47.0114 431.667 47.0307 432.49 47.0307C432.49 48.1329 432.49 49.2931 432.49 50.3759H429.981Z" fill="#EBEAE4"/>
</svg>
