<svg width="51" height="58" viewBox="0 0 51 58" fill="none" xmlns="http://www.w3.org/2000/svg">
<path d="M20.788 24.6636C20.788 23.1667 22.029 21.9533 23.5598 21.9533H27.3016C28.8324 21.9533 30.0734 23.1667 30.0734 24.6636V28.3224C30.0734 29.8193 28.8324 31.0327 27.3016 31.0327H23.5598C22.029 31.0327 20.788 29.8193 20.788 28.3224V24.6636Z" fill="#EBEAE4"/>
<path d="M30.0734 2.71028C30.0734 1.21343 31.3143 0 32.8451 0H36.587C38.1177 0 39.3587 1.21343 39.3587 2.71028V15.4486C39.3587 16.9454 38.1177 18.1589 36.587 18.1589H32.8451C31.3143 18.1589 30.0734 16.9454 30.0734 15.4486V2.71028Z" fill="#EBEAE4"/>
<path d="M0 51.6308C0 50.134 1.24095 48.9206 2.77174 48.9206H48.2283C49.759 48.9206 51 50.134 51 51.6308V55.2897C51 56.7866 49.759 58 48.2283 58H2.77174C1.24095 58 0 56.7866 0 55.2897V51.6308Z" fill="#EBEAE4"/>
<path d="M23.5922 1.91646C24.6747 0.858027 26.4296 0.858027 27.5121 1.91646L49.0711 22.9975C50.1536 24.0559 50.1536 25.772 49.0711 26.8304L46.4252 29.4176C45.3428 30.4761 43.5878 30.4761 42.5054 29.4176L20.9463 8.33659C19.8639 7.27816 19.8639 5.56211 20.9463 4.50368L23.5922 1.91646Z" fill="#EBEAE4"/>
<path d="M1.90811 26.8367C0.825683 25.7782 0.825683 24.0622 1.90811 23.0038L23.4672 1.92273C24.5496 0.864299 26.3046 0.864299 27.387 1.92273L30.0329 4.50995C31.1153 5.56838 31.1153 7.28443 30.0329 8.34286L8.47383 29.4239C7.3914 30.4823 5.63643 30.4823 4.554 29.4239L1.90811 26.8367Z" fill="#EBEAE4"/>
</svg>
