<svg width="3202" height="568" viewBox="0 0 3202 568" fill="none" xmlns="http://www.w3.org/2000/svg">
<g clip-path="url(#clip0)">
<path d="M1031.5 175.5C1214.5 278 1309.5 286 1454 159.5M2853.5 284.5L2882.5 276C2895 269.333 2924.1 256.9 2940.5 260.5C2961 265 3008.5 279.5 3023 274C3037.5 268.5 3084.5 277 3109 260.5C3128.6 247.3 3131.83 234.5 3133.5 230C3134.17 228.333 3137 228.5 3139 224M3058 193.5C3058 193.5 3059 183.922 3075.5 184L3075.56 184C3092.06 184.079 3115.8 184.191 3117 177C3118.2 169.8 3111.17 165.333 3107.5 164L3100 161.5C3095.33 163 3084.7 164.2 3079.5 157M1725.5 184.5C1774 228.167 1886.8 307.5 1950 275.5C2016.8 282.7 2136.17 234.167 2187.5 209" stroke="#5386A4" stroke-width="9"/>
<path d="M1031.5 180.5C1214.5 283 1309.5 291 1454 164.5M2853.5 289.5L2882.5 281C2895 274.333 2924.1 261.9 2940.5 265.5C2961 270 3008.5 284.5 3023 279C3037.5 273.5 3084.5 282 3109 265.5C3128.6 252.3 3131.83 239.5 3133.5 235C3134.17 233.333 3137 233.5 3139 229M3058 198.5C3058 198.5 3059 188.922 3075.5 189L3075.56 189C3092.06 189.079 3115.8 189.191 3117 182C3118.2 174.8 3111.17 170.333 3107.5 169L3100 166.5C3095.33 168 3084.7 169.2 3079.5 162M1725.5 189.5C1774 233.167 1886.8 312.5 1950 280.5C2016.8 287.7 2136.17 239.167 2187.5 214" stroke="#ABA087" stroke-width="6"/>
<circle cx="983" cy="284" r="32" fill="#5386A4"/>
<circle cx="1957" cy="309" r="28" fill="#5386A4"/>
<circle cx="784.5" cy="230.5" r="9.5" fill="#9F7EC3"/>
<rect x="222" y="379" width="20" height="118" rx="10" fill="#5386A4"/>
<path d="M222 396.5L233.5 391.5L242 394V474H222V396.5Z" fill="#3C666B"/>
<path d="M231.199 376C230.866 384.258 228.252 401.071 220.462 402.26C212.227 401.813 222.035 419.669 231.199 412.169C238.233 403.312 257.893 428.911 245.182 430.997C226.954 434.465 198.988 436.943 210.474 449.825C212.472 452.302 225.456 453.789 245.182 459.239C264.908 464.689 287.88 477.571 263.41 478.562C243.834 479.355 205.647 478.893 189 478.562" stroke="#7BCCA4" stroke-width="9"/>
<path d="M231.801 370C232.134 378.338 234.748 395.314 242.538 396.515C250.773 396.063 240.965 414.093 231.801 406.52C224.767 397.577 205.107 423.425 217.818 425.531C236.046 429.033 264.012 431.534 252.526 444.542C250.528 447.043 237.544 448.544 217.818 454.047C198.092 459.55 175.12 472.557 199.59 473.558C219.166 474.358 257.353 473.892 274 473.558" stroke="#3D5F4E" stroke-width="6"/>
<path d="M150 311C150 299.954 158.954 291 170 291H197C208.046 291 217 299.954 217 311V338C217 349.046 208.046 358 197 358H170C158.954 358 150 349.046 150 338V311Z" fill="#E5E5E5"/>
<path d="M217 149C217 137.954 225.954 129 237 129H264C275.046 129 284 137.954 284 149V243C284 254.046 275.046 263 264 263H237C225.954 263 217 254.046 217 243V149Z" fill="#E5E5E5"/>
<path d="M0 510C0 498.954 8.95431 490 20 490H348C359.046 490 368 498.954 368 510V537C368 548.046 359.046 557 348 557H20C8.9543 557 0 548.046 0 537V510Z" fill="#E5E5E5"/>
<path d="M170.234 143.142C178.045 135.332 190.708 135.332 198.518 143.142L354.082 298.706C361.892 306.516 361.892 319.179 354.082 326.99L334.99 346.082C327.179 353.892 314.516 353.892 306.706 346.082L151.142 190.518C143.332 182.708 143.332 170.045 151.142 162.234L170.234 143.142Z" fill="#E5E5E5"/>
<path d="M13.7684 327.036C5.95787 319.226 5.95787 306.562 13.7684 298.752L169.332 143.188C177.142 135.378 189.806 135.378 197.616 143.188L216.708 162.28C224.518 170.091 224.518 182.754 216.708 190.565L61.1445 346.128C53.334 353.939 40.6707 353.939 32.8602 346.128L13.7684 327.036Z" fill="#E5E5E5"/>
<path d="M617.536 156.4C485.056 156.4 467.2 156.4 449.92 156.4V358C467.2 358 485.056 358 502.624 358V203.92H564.832V358C582.4 358 599.968 358 617.536 358V156.4Z" fill="#E5E5E5"/>
<path d="M732.079 358V306.448H769.231C865.711 306.448 865.711 156.688 769.231 156.4C739.567 156.4 709.615 156.4 680.527 156.4C680.527 223.792 680.527 290.896 680.527 358C697.519 358 714.799 358 732.079 358ZM768.943 260.08H732.079C732.079 243.664 732.079 218.896 732.079 202.48C743.887 202.48 756.847 202.192 768.943 202.48C798.895 202.768 797.167 260.08 768.943 260.08Z" fill="#E5E5E5"/>
<path d="M1086.42 257.488C1086.42 118.096 879.632 118.096 879.632 257.488C879.632 397.168 1086.42 397.168 1086.42 257.488ZM932.624 257.488C932.624 184.912 1033.71 184.912 1033.71 257.488C1033.71 330.64 932.624 330.64 932.624 257.488Z" fill="#E5E5E5"/>
<path d="M1310.64 256.912C1310.64 285.712 1288.76 293.2 1267.73 294.352V219.76C1289.91 220.624 1310.64 228.112 1310.64 256.912ZM1177.01 256.912C1177.01 228.112 1197.75 220.624 1219.92 219.76V294.352C1198.9 293.2 1177.01 285.712 1177.01 256.912ZM1219.35 358.864H1268.31V341.872C1320.44 340.144 1363.35 319.696 1363.35 256.912C1363.35 194.416 1320.72 174.256 1268.6 172.528V155.536H1219.06V172.528C1166.93 174.256 1124.31 194.416 1124.31 256.912C1124.31 319.696 1167.22 340.144 1219.35 341.872V358.864Z" fill="#E5E5E5"/>
<path d="M1539.57 156.4C1492.34 156.4 1460.37 156.4 1413.71 156.4C1413.71 223.216 1413.71 290.608 1413.71 358C1460.37 358 1494.93 358 1542.16 358C1542.16 342.736 1542.16 327.184 1542.16 312.208C1511.92 312.208 1494.64 312.208 1464.98 312.208C1464.98 300.112 1464.98 288.592 1464.98 276.784H1533.52C1533.52 261.52 1533.52 246.256 1533.52 230.992H1464.98V202.48C1494.64 202.48 1509.62 202.48 1539.57 202.48C1539.57 186.928 1539.57 171.376 1539.57 156.4Z" fill="#E5E5E5"/>
<path d="M1585.82 257.2C1586.11 325.744 1637.95 360.304 1689.22 360.016C1732.13 360.016 1777.34 337.552 1784.83 280.528C1767.26 280.528 1751.42 280.528 1734.14 280.528C1728.67 302.128 1711.1 313.072 1689.22 313.072C1658.69 312.784 1639.1 286.864 1639.1 257.2C1639.1 223.792 1658.98 201.04 1689.22 201.04C1710.82 201.04 1726.08 210.256 1733.28 230.704C1750.85 230.704 1766.4 230.704 1783.97 230.704C1776.19 176.848 1730.98 154.096 1689.22 154.096C1637.95 154.096 1586.11 188.656 1585.82 257.2Z" fill="#E5E5E5"/>
<path d="M1823.75 257.2C1824.04 325.744 1875.88 360.304 1927.14 360.016C1970.05 360.016 2015.27 337.552 2022.76 280.528C2005.19 280.528 1989.35 280.528 1972.07 280.528C1966.6 302.128 1949.03 313.072 1927.14 313.072C1896.61 312.784 1877.03 286.864 1877.03 257.2C1877.03 223.792 1896.9 201.04 1927.14 201.04C1948.74 201.04 1964.01 210.256 1971.21 230.704C1988.77 230.704 2004.33 230.704 2021.89 230.704C2014.12 176.848 1968.9 154.096 1927.14 154.096C1875.88 154.096 1824.04 188.656 1823.75 257.2Z" fill="#E5E5E5"/>
<path d="M2194.16 258.928V358C2212.01 358 2229.87 358 2247.44 358V155.536H2228.72L2126.76 255.184V156.4C2109.2 156.4 2091.63 156.4 2074.06 156.4V358.288H2092.49L2194.16 258.928Z" fill="#E5E5E5"/>
<path d="M2504.97 257.488C2504.97 118.096 2298.19 118.096 2298.19 257.488C2298.19 397.168 2504.97 397.168 2504.97 257.488ZM2351.18 257.488C2351.18 184.912 2452.27 184.912 2452.27 257.488C2452.27 330.64 2351.18 330.64 2351.18 257.488Z" fill="#E5E5E5"/>
<path d="M2723.15 156.4C2705.59 156.4 2688.02 156.4 2670.45 156.4V229.552H2608.24V156.4C2590.67 156.4 2572.82 156.4 2555.54 156.4V358C2572.82 358 2590.67 358 2608.24 358V277.072H2670.45V358C2688.02 358 2705.59 358 2723.15 358V156.4Z" fill="#E5E5E5"/>
<path d="M2914.3 358H2964.7V350.512L2873.7 153.808H2851.52L2760.8 350.512V358H2811.2L2823.01 332.656H2902.5L2914.3 358ZM2885.79 288.592H2839.71L2862.46 235.6L2885.79 288.592Z" fill="#E5E5E5"/>
<path d="M3090.83 239.92L3142.67 358H3193.07V350.512L3102.06 153.808H3079.88L2989.16 350.512V358H3039.56L3090.83 239.92Z" fill="#E5E5E5"/>
<path d="M470.008 557H497.8L545.608 460.088V456.2H517.672L500.392 493.352H499.672L480.664 456.2H451.864V460.088L485.848 521.72L470.008 554.264V557Z" fill="#E5E5E5"/>
<path d="M675.934 456.2C609.694 456.2 600.766 456.2 592.126 456.2V557C600.766 557 609.694 557 618.478 557V479.96H649.582V557C658.366 557 667.15 557 675.934 557V456.2Z" fill="#E5E5E5"/>
<path d="M759.845 557V531.224H778.421C826.661 531.224 826.661 456.344 778.421 456.2C763.589 456.2 748.613 456.2 734.069 456.2C734.069 489.896 734.069 523.448 734.069 557C742.565 557 751.205 557 759.845 557ZM778.277 508.04H759.845C759.845 499.832 759.845 487.448 759.845 479.24C765.749 479.24 772.229 479.096 778.277 479.24C793.253 479.384 792.389 508.04 778.277 508.04Z" fill="#E5E5E5"/>
<path d="M924.487 557H949.687V553.256L904.183 454.904H893.095L847.735 553.256V557H872.935L878.839 544.328H918.583L924.487 557ZM910.231 522.296H887.191L898.567 495.8L910.231 522.296Z" fill="#E5E5E5"/>
<path d="M1069.77 487.16C1069.77 469.736 1055.8 456.2 1038.38 456.2H995.322V557H1042.55C1063.15 557 1073.8 542.744 1073.95 525.176C1073.95 516.248 1070.06 508.76 1061.85 504.584C1066.75 500.552 1069.77 493.208 1069.77 487.16ZM1040.68 516.968C1051.05 516.968 1051.19 534.104 1040.83 534.104H1020.23V516.968H1040.68ZM1036.36 479.24C1046.73 479.24 1046.73 495.512 1036.51 495.512H1020.23V479.24H1036.36Z" fill="#E5E5E5"/>
<path d="M1164.6 497.96L1190.52 557H1215.72V553.256L1170.22 454.904H1159.13L1113.77 553.256V557H1138.97L1164.6 497.96Z" fill="#E5E5E5"/>
<path d="M1251.42 553.256V557H1280.22L1297.5 527.336H1310.89V557C1319.53 557 1328.32 557 1336.67 557C1336.67 523.448 1336.67 489.896 1336.67 456.2C1322.12 456.2 1307.15 456.2 1292.46 456.2C1252.86 456.344 1245.66 504.008 1271.15 521.288L1251.42 553.256ZM1292.46 504.152C1278.49 504.152 1277.77 479.384 1292.46 479.24C1298.51 479.096 1304.84 479.24 1310.89 479.24C1310.89 487.448 1310.89 496.088 1310.89 504.152H1292.46Z" fill="#E5E5E5"/>
<path d="M1535.85 506.744C1535.85 441.8 1446.57 436.904 1434.18 492.776H1421.08V456.2H1394.73V557H1421.08V516.536H1433.46C1442.68 576.296 1535.85 573.128 1535.85 506.744ZM1458.95 506.744C1458.95 470.456 1509.49 470.456 1509.49 506.744C1509.49 543.32 1458.95 543.32 1458.95 506.744Z" fill="#E5E5E5"/>
<path d="M1587.86 557H1704.65V568.376H1725.82V534.68H1715.59V456.2H1689.24V533.24H1664.9V456.2H1638.55V533.24H1614.22V456.2H1587.86V557Z" fill="#E5E5E5"/>
<path d="M1843.81 557H1869.01V553.256L1823.5 454.904H1812.42L1767.06 553.256V557H1792.26L1798.16 544.328H1837.9L1843.81 557ZM1829.55 522.296H1806.51L1817.89 495.8L1829.55 522.296Z" fill="#E5E5E5"/>
<path d="M1907.8 553.256V557H1936.6L1953.88 527.336H1967.27V557C1975.91 557 1984.7 557 1993.05 557C1993.05 523.448 1993.05 489.896 1993.05 456.2C1978.51 456.2 1963.53 456.2 1948.84 456.2C1909.24 456.344 1902.04 504.008 1927.53 521.288L1907.8 553.256ZM1948.84 504.152C1934.87 504.152 1934.15 479.384 1948.84 479.24C1954.89 479.096 1961.23 479.24 1967.27 479.24C1967.27 487.448 1967.27 496.088 1967.27 504.152H1948.84Z" fill="#E5E5E5"/>
<path d="M2149.51 557V518.552C2152.83 518.552 2155.99 518.552 2159.45 517.976L2181.63 557H2210.28V552.968L2182.92 508.616C2202.94 495.8 2202.36 476.792 2202.36 456.2C2193.44 456.2 2184.65 456.2 2175.87 456.2C2175.87 475.064 2177.16 494.36 2151.39 494.36H2149.51V456.2C2140.59 456.2 2131.95 456.2 2123.31 456.2V557C2131.95 557 2140.59 557 2149.51 557Z" fill="#E5E5E5"/>
<path d="M2354.72 506.744C2354.72 437.048 2251.32 437.048 2251.32 506.744C2251.32 576.584 2354.72 576.584 2354.72 506.744ZM2277.82 506.744C2277.82 470.456 2328.36 470.456 2328.36 506.744C2328.36 543.32 2277.82 543.32 2277.82 506.744Z" fill="#E5E5E5"/>
<path d="M2455.31 499.688L2415.85 455.912H2406.35V557C2415.13 557 2423.92 557 2432.7 557V512.072L2454.01 534.536H2456.89L2478.35 512.072V557C2487.13 557 2495.92 557 2504.7 557V455.912H2495.49L2455.31 499.688Z" fill="#E5E5E5"/>
<path d="M2646.74 456.2C2580.5 456.2 2571.57 456.2 2562.93 456.2V557C2571.57 557 2580.5 557 2589.28 557V479.96H2620.38V557C2629.17 557 2637.95 557 2646.74 557V456.2Z" fill="#E5E5E5"/>
<path d="M2768.95 557H2794.15V553.256L2748.65 454.904H2737.56L2692.2 553.256V557H2717.4L2723.3 544.328H2763.05L2768.95 557ZM2754.7 522.296H2731.66L2743.03 495.8L2754.7 522.296Z" fill="#E5E5E5"/>
<path d="M2923.74 456.2C2914.96 456.2 2906.17 456.2 2897.39 456.2V492.776H2866.28V456.2C2857.5 456.2 2848.57 456.2 2839.93 456.2V557C2848.57 557 2857.5 557 2866.28 557V516.536H2897.39V557C2906.17 557 2914.96 557 2923.74 557V456.2Z" fill="#E5E5E5"/>
<path d="M3042.07 507.464V557C3051 557 3059.92 557 3068.71 557V455.768H3059.35L3008.37 505.592V456.2C2999.59 456.2 2990.8 456.2 2982.02 456.2V557.144H2991.24L3042.07 507.464Z" fill="#E5E5E5"/>
<path d="M3116.98 553.256V557H3145.78L3163.06 527.336H3176.45V557C3185.09 557 3193.88 557 3202.23 557C3202.23 523.448 3202.23 489.896 3202.23 456.2C3187.68 456.2 3172.71 456.2 3158.02 456.2C3118.42 456.344 3111.22 504.008 3136.71 521.288L3116.98 553.256ZM3158.02 504.152C3144.05 504.152 3143.33 479.384 3158.02 479.24C3164.07 479.096 3170.4 479.24 3176.45 479.24C3176.45 487.448 3176.45 496.088 3176.45 504.152H3158.02Z" fill="#E5E5E5"/>
<path d="M297.093 67.0263C304.426 62.7924 313.593 68.0848 313.593 76.5526L313.593 237.633C313.593 246.101 304.426 251.393 297.093 247.16L157.593 166.619C150.26 162.385 150.26 151.801 157.593 147.567L297.093 67.0263Z" fill="#FF7979"/>
<path d="M150.25 138.754C155.911 128.949 168.449 125.589 178.254 131.25L319.203 212.627C329.008 218.288 332.367 230.826 326.706 240.631V240.631C321.046 250.436 308.508 253.795 298.703 248.134L157.754 166.757C147.949 161.096 144.589 148.559 150.25 138.754V138.754Z" fill="#5386A4"/>
<circle cx="307" cy="67" r="24" fill="#E5E5E5"/>
<path d="M518 159.15C518 159.15 514 187 530 173C546 159 521 160.5 506.5 157C492 153.5 479.5 150.5 463 157C446.5 163.5 444 178.5 444 186.5C444 194.5 447.5 218 450 230C452.5 242 490 263.5 501.5 263.5C513 263.5 557.5 248 565 248M617.5 217.5C626 217.5 642.5 219.5 651.5 223C660.5 226.5 672.5 234 681 234M732 246C740 246 767 254 783.5 254C800 254 836 241 843 234C850 227 850.5 208.5 839 211M789.5 220.5C784 222.333 766.156 220.161 762.5 215C754 203 807 207.666 823.5 204.5C836.167 201 863 212.5 877.5 207.5C893.156 202.101 915 157 966.5 157C1007.7 157 1007.17 201.167 1006.5 211C998 243.166 981.5 283 981.5 203M1447 156.5C1447 148.5 1466 152.5 1454 172.5C1442 192.5 1452.67 230.167 1459.5 246.5C1460.67 255 1472.6 272.7 1511 275.5C1549.4 278.3 1612.67 257.333 1639.5 246.5C1639.5 246.5 1710 210 1712 205.5M2159 221.5C2185.67 229 2242.1 237.8 2254.5 213C2276.9 183.4 2327.5 173.333 2350 172C2372.83 179.167 2428.9 189.2 2470.5 172C2512.1 154.8 2570.83 154.5 2595 156.5C2641.17 211.167 2758.3 313.1 2857.5 283.5M3138.5 225C3141.83 219.833 3143.8 209.9 3125 211.5C3101.5 213.5 3057.5 206.5 3056.5 202C3055.5 197.5 3055.5 187 3063 189.5" stroke="#5386A4" stroke-width="9"/>
<path d="M518 163.513C518 163.513 514 191.363 530 177.363C546 163.363 521 164.863 506.5 161.363C492 157.863 479.5 154.863 463 161.363C446.5 167.863 444 182.863 444 190.863C444 198.863 447.5 222.363 450 234.363C452.5 246.363 490 267.863 501.5 267.863C513 267.863 557.5 252.363 565 252.363M617.5 221.863C626 221.863 642.5 223.863 651.5 227.363C660.5 230.863 672.5 238.363 681 238.363M732 250.363C740 250.363 767 258.363 783.5 258.363C800 258.363 836 245.363 843 238.363C850 231.363 850.5 212.863 839 215.363M789.5 224.863C784 226.696 766.156 224.524 762.5 219.363C754 207.363 807 212.03 823.5 208.863C836.167 205.363 863 216.863 877.5 211.863C893.156 206.464 915 161.363 966.5 161.363C1007.7 161.363 1007.17 205.53 1006.5 215.363C998 247.53 981.5 287.363 981.5 207.363M1447 160.863C1447 152.863 1466 156.863 1454 176.863C1442 196.863 1452.67 234.53 1459.5 250.863C1460.67 259.363 1472.6 277.063 1511 279.863C1549.4 282.663 1612.67 261.696 1639.5 250.863C1639.5 250.863 1710 214.363 1712 209.863M2159 225.863C2185.67 233.363 2242.1 242.163 2254.5 217.363C2276.9 187.763 2327.5 177.696 2350 176.363C2372.83 183.53 2428.9 193.563 2470.5 176.363C2512.1 159.163 2570.83 158.863 2595 160.863C2641.17 215.53 2758.3 317.463 2857.5 287.863M3138.5 229.363C3141.83 224.196 3143.8 214.263 3125 215.863C3101.5 217.863 3057.5 210.863 3056.5 206.363C3055.5 201.863 3055.5 191.363 3063 193.863" stroke="#ABA087" stroke-width="6"/>
<circle cx="784.5" cy="215.5" r="9.5" fill="#9F7EC3"/>
<circle cx="760.5" cy="224.5" r="9.5" fill="#9F7EC3"/>
<circle cx="813.5" cy="216.5" r="9.5" fill="#9F7EC3"/>
<circle cx="842.5" cy="216.5" r="9.5" fill="#9F7EC3"/>
<circle cx="2413" cy="223" r="38" fill="#5386A4"/>
<circle cx="662" cy="267" r="41" fill="#FF7979"/>
<circle cx="781.5" cy="267.5" r="9.5" fill="#9F7EC3"/>
<circle cx="808.5" cy="263.5" r="9.5" fill="#9F7EC3"/>
<circle cx="832.5" cy="254.5" r="9.5" fill="#9F7EC3"/>
<circle cx="857.5" cy="235.5" r="9.5" fill="#9F7EC3"/>
<circle cx="1703" cy="260" r="43" fill="#FF7979"/>
<circle cx="2731" cy="302" r="35" fill="#FF7979"/>
<circle cx="3024.5" cy="204.5" r="32.5" fill="#FF7979"/>
<circle cx="233" cy="455" r="3" fill="#9F7EC3"/>
<circle cx="241" cy="432" r="2" fill="#9F7EC3"/>
<circle cx="224" cy="419" r="4" fill="#9F7EC3"/>
<circle cx="244.5" cy="418.5" r="1.5" fill="#9F7EC3"/>
<circle cx="229" cy="387" r="2" fill="#9F7EC3"/>
<circle cx="239" cy="404" r="2" fill="#FF7979"/>
<circle cx="233" cy="421" r="2" fill="#FF7979"/>
<circle cx="227.5" cy="441.5" r="2.5" fill="#FF7979"/>
<circle cx="220.5" cy="435.5" r="2.5" fill="#5386A4"/>
<circle cx="271.5" cy="469.5" r="4.5" fill="#5386A4"/>
<circle cx="232.5" cy="479.5" r="2.5" fill="#5386A4"/>
<circle cx="194" cy="476" r="5" fill="#5386A4"/>
<circle cx="250.5" cy="424.5" r="3.5" fill="#5386A4"/>
<circle cx="219.5" cy="467.5" r="3.5" fill="#FF7979"/>
<circle cx="253" cy="476" r="2" fill="#FF7979"/>
<circle cx="212" cy="479" r="2" fill="#FF7979"/>
<circle cx="214" cy="446" r="2" fill="#9F7EC3"/>
<circle cx="261" cy="479" r="2" fill="#9F7EC3"/>
<circle cx="201" cy="471" r="2" fill="#9F7EC3"/>
<circle cx="252" cy="464" r="2" fill="#9F7EC3"/>
<path d="M225.421 350.4L232.148 360.758L244.078 357.562L236.305 367.16L243.032 377.519L231.501 373.093L223.728 382.691L224.375 370.357L212.844 365.931L224.774 362.734L225.421 350.4Z" fill="#E5E5E5"/>
</g>
<defs>
<clipPath id="clip0">
<rect width="3202" height="568" fill="white"/>
</clipPath>
</defs>
</svg>
