<svg width="84" height="102" viewBox="0 0 84 102" fill="none" xmlns="http://www.w3.org/2000/svg">
<path d="M36.7433 45.8299C36.7433 44.3442 37.9816 43.1399 39.5091 43.1399H43.2429C44.7704 43.1399 46.0087 44.3442 46.0087 45.8299V49.4614C46.0087 50.9471 44.7704 52.1514 43.2429 52.1514H39.5091C37.9816 52.1514 36.7433 50.9471 36.7433 49.4614V45.8299Z" fill="#EBEAE4"/>
<path d="M46.0087 24.0407C46.0087 22.555 47.2469 21.3506 48.7744 21.3506H52.5082C54.0357 21.3506 55.274 22.555 55.274 24.0407V36.6838C55.274 38.1695 54.0357 39.3738 52.5082 39.3738H48.7744C47.2469 39.3738 46.0087 38.1695 46.0087 36.6838V24.0407Z" fill="#EBEAE4"/>
<path d="M16 72.5956C16 71.11 17.2383 69.9056 18.7658 69.9056H64.1245C65.652 69.9056 66.8903 71.11 66.8903 72.5956V76.2272C66.8903 77.7128 65.652 78.9172 64.1245 78.9172H18.7658C17.2383 78.9172 16 77.7128 16 76.2272V72.5956Z" fill="#EBEAE4"/>
<path d="M39.5415 23.2528C40.6216 22.2023 42.3728 22.2023 43.4529 23.2528L64.9656 44.1763C66.0457 45.2268 66.0457 46.93 64.9656 47.9805L62.3254 50.5484C61.2453 51.5989 59.4941 51.5989 58.414 50.5484L36.9013 29.6249C35.8212 28.5744 35.8212 26.8712 36.9013 25.8207L39.5415 23.2528Z" fill="#EBEAE4"/>
<path d="M17.904 47.9868C16.8239 46.9363 16.8239 45.233 17.904 44.1825L39.4167 23.259C40.4968 22.2085 42.248 22.2085 43.3281 23.259L45.9683 25.8269C47.0484 26.8774 47.0484 28.5806 45.9683 29.6312L24.4556 50.5547C23.3755 51.6052 21.6243 51.6052 20.5442 50.5547L17.904 47.9868Z" fill="#EBEAE4"/>
<path d="M54.7133 14.2691C56.7338 13.1345 59.2282 14.5352 59.2282 16.8043L59.2282 33.3472C59.2282 35.6402 56.6864 37.0973 54.6657 35.9626L39.9358 27.6912C37.9151 26.5565 37.9416 23.687 39.9833 22.5405L54.7133 14.2691Z" fill="#FF7979"/>
<path d="M37.0362 21.9945C37.6001 21.0446 38.8379 20.7131 39.801 21.2539L60.7152 32.998C61.6783 33.5389 62.002 34.7473 61.4382 35.6971L60.6451 37.0332C60.0812 37.983 58.8434 38.3146 57.8803 37.7738L36.9661 26.0296C36.003 25.4888 35.6793 24.2804 36.2431 23.3306L37.0362 21.9945Z" fill="#DFD0AE"/>
<ellipse cx="58.3165" cy="13.0116" rx="3.31893" ry="3.22803" fill="#EBEAE4"/>
</svg>
