<svg width="363" height="191" viewBox="0 0 363 191" fill="none" xmlns="http://www.w3.org/2000/svg">
<rect y="49" width="178" height="44" fill="#3C666B"/>
<rect y="98" width="178" height="44" fill="#3C666B"/>
<rect y="147" width="178" height="44" fill="#3C666B"/>
<rect x="185" y="147" width="178" height="44" fill="#3C666B"/>
<rect x="127" y="49" width="44.4292" height="44" fill="#3C666B"/>
<path d="M148.128 63.2C137.088 63.2 135.6 63.2 134.16 63.2V80C135.6 80 137.088 80 138.552 80V67.16H143.736V80C145.2 80 146.664 80 148.128 80V63.2ZM155.009 67.04V80C156.425 80 157.841 80 159.257 80V67.04H163.361C163.361 65.744 163.361 64.472 163.361 63.2H150.881C150.881 64.472 150.881 65.744 150.881 67.04H155.009Z" fill="#EBEAE4"/>
<rect x="127" y="98" width="44.4292" height="44" fill="#3C666B"/>
<path d="M92.128 120.6C92.152 126.312 96.472 129.192 100.744 129.168C104.32 129.168 108.088 127.296 108.712 122.544C107.248 122.544 105.928 122.544 104.488 122.544C104.032 124.344 102.568 125.256 100.744 125.256C98.2 125.232 96.568 123.072 96.568 120.6C96.568 117.816 98.224 115.92 100.744 115.92C102.544 115.92 103.816 116.688 104.416 118.392C105.88 118.392 107.176 118.392 108.64 118.392C107.992 113.904 104.224 112.008 100.744 112.008C96.472 112.008 92.152 114.888 92.128 120.6ZM119.491 121.872C121.843 121.872 121.867 125.16 119.491 125.16C118.483 125.16 117.403 125.16 116.419 125.16V121.872H119.491ZM116.419 118.08V116.04H124.195V112.2H112.123V129H119.515C127.555 128.976 127.555 118.08 119.515 118.08H116.419Z" fill="#EBEAE4"/>
<path d="M62.4158 159.2C51.3758 159.2 49.8878 159.2 48.4478 159.2V176C49.8878 176 51.3758 176 52.8398 176V163.16H58.0238V176C59.4878 176 60.9518 176 62.4158 176V159.2ZM77.3131 159.2C73.3771 159.2 70.7131 159.2 66.8251 159.2C66.8251 164.768 66.8251 170.384 66.8251 176C70.7131 176 73.5931 176 77.5291 176C77.5291 174.728 77.5291 173.432 77.5291 172.184C75.0091 172.184 73.5691 172.184 71.0971 172.184C71.0971 171.176 71.0971 170.216 71.0971 169.232H76.8091C76.8091 167.96 76.8091 166.688 76.8091 165.416H71.0971V163.04C73.5691 163.04 74.8171 163.04 77.3131 163.04C77.3131 161.744 77.3131 160.448 77.3131 159.2ZM85.6317 176V171.704H88.7277C96.7677 171.704 96.7677 159.224 88.7277 159.2C86.2557 159.2 83.7597 159.2 81.3357 159.2C81.3357 164.816 81.3357 170.408 81.3357 176C82.7517 176 84.1917 176 85.6317 176ZM88.7037 167.84H85.6317C85.6317 166.472 85.6317 164.408 85.6317 163.04C86.6157 163.04 87.6957 163.016 88.7037 163.04C91.1997 163.064 91.0557 167.84 88.7037 167.84ZM108.608 159.2C104.672 159.2 102.008 159.2 98.1197 159.2C98.1197 164.768 98.1197 170.384 98.1197 176C102.008 176 104.888 176 108.824 176C108.824 174.728 108.824 173.432 108.824 172.184C106.304 172.184 104.864 172.184 102.392 172.184C102.392 171.176 102.392 170.216 102.392 169.232H108.104C108.104 167.96 108.104 166.688 108.104 165.416H102.392V163.04C104.864 163.04 106.112 163.04 108.608 163.04C108.608 161.744 108.608 160.448 108.608 159.2ZM116.926 176V171.704H120.022C128.062 171.704 128.062 159.224 120.022 159.2C117.55 159.2 115.054 159.2 112.63 159.2C112.63 164.816 112.63 170.408 112.63 176C114.046 176 115.486 176 116.926 176ZM119.998 167.84H116.926C116.926 166.472 116.926 164.408 116.926 163.04C117.91 163.04 118.99 163.016 119.998 163.04C122.494 163.064 122.35 167.84 119.998 167.84ZM129.414 159.2V176H136.806C144.846 175.976 144.846 164.216 136.806 164.216H133.71V159.2H129.414ZM136.782 168.08C139.134 168.08 139.278 172.136 136.782 172.16C135.774 172.184 134.694 172.16 133.71 172.16V168.08H136.782ZM145.998 176H150.294V159.2H145.998V176ZM167.091 164.36C167.091 161.456 164.763 159.2 161.859 159.2H154.683V176H162.555C165.987 176 167.763 173.624 167.787 170.696C167.787 169.208 167.139 167.96 165.771 167.264C166.587 166.592 167.091 165.368 167.091 164.36ZM162.243 169.328C163.971 169.328 163.995 172.184 162.267 172.184H158.835V169.328H162.243ZM161.523 163.04C163.251 163.04 163.251 165.752 161.547 165.752H158.835V163.04H161.523Z" fill="#EBEAE4"/>
<path d="M146.544 117.36C146.544 114.456 144.216 112.2 141.312 112.2H134.136V129H142.008C145.44 129 147.216 126.624 147.24 123.696C147.24 122.208 146.592 120.96 145.224 120.264C146.04 119.592 146.544 118.368 146.544 117.36ZM141.696 122.328C143.424 122.328 143.448 125.184 141.72 125.184H138.288V122.328H141.696ZM140.976 116.04C142.704 116.04 142.704 118.752 141 118.752H138.288V116.04H140.976ZM149.701 120.6C149.725 126.312 154.045 129.192 158.317 129.168C161.893 129.168 165.661 127.296 166.285 122.544C164.821 122.544 163.501 122.544 162.061 122.544C161.605 124.344 160.141 125.256 158.317 125.256C155.773 125.232 154.141 123.072 154.141 120.6C154.141 117.816 155.797 115.92 158.317 115.92C160.117 115.92 161.389 116.688 161.989 118.392C163.453 118.392 164.749 118.392 166.213 118.392C165.565 113.904 161.797 112.008 158.317 112.008C154.045 112.008 149.725 114.888 149.701 120.6Z" fill="#EBEAE4"/>
<rect width="177.717" height="44.4292" fill="#3C666B"/>
<path d="M29.4674 14.2C18.4274 14.2 16.9394 14.2 15.4994 14.2V31C16.9394 31 18.4274 31 19.8914 31V18.16H25.0754V31C26.5394 31 28.0034 31 29.4674 31V14.2ZM47.8686 14.2C46.4046 14.2 44.9406 14.2 43.4766 14.2V20.296H38.2926V14.2C36.8286 14.2 35.3406 14.2 33.9006 14.2V31C35.3406 31 36.8286 31 38.2926 31V24.256H43.4766V31C44.9406 31 46.4046 31 47.8686 31V14.2Z" fill="#EBEAE4"/>
<path d="M69.8834 19.36C69.8834 16.456 67.5554 14.2 64.6514 14.2H57.4754V31H65.3474C68.7794 31 70.5554 28.624 70.5794 25.696C70.5794 24.208 69.9314 22.96 68.5634 22.264C69.3794 21.592 69.8834 20.368 69.8834 19.36ZM65.0354 24.328C66.7634 24.328 66.7874 27.184 65.0594 27.184H61.6274V24.328H65.0354ZM64.3154 18.04C66.0434 18.04 66.0434 20.752 64.3394 20.752H61.6274V18.04H64.3154ZM76.5205 18.04V31C77.9365 31 79.3525 31 80.7685 31V18.04H84.8725C84.8725 16.744 84.8725 15.472 84.8725 14.2H72.3925C72.3925 15.472 72.3925 16.744 72.3925 18.04H76.5205Z" fill="#EBEAE4"/>
<path d="M92.4674 22.6C92.4914 28.312 96.8114 31.192 101.083 31.168C104.659 31.168 108.427 29.296 109.051 24.544C107.587 24.544 106.267 24.544 104.827 24.544C104.371 26.344 102.907 27.256 101.083 27.256C98.5394 27.232 96.9074 25.072 96.9074 22.6C96.9074 19.816 98.5634 17.92 101.083 17.92C102.883 17.92 104.155 18.688 104.755 20.392C106.219 20.392 107.515 20.392 108.979 20.392C108.331 15.904 104.563 14.008 101.083 14.008C96.8114 14.008 92.4914 16.888 92.4674 22.6ZM116.759 31V26.704H119.855C127.895 26.704 127.895 14.224 119.855 14.2C117.383 14.2 114.887 14.2 112.463 14.2C112.463 19.816 112.463 25.408 112.463 31C113.879 31 115.319 31 116.759 31ZM119.831 22.84H116.759C116.759 21.472 116.759 19.408 116.759 18.04C117.743 18.04 118.823 18.016 119.831 18.04C122.327 18.064 122.183 22.84 119.831 22.84Z" fill="#EBEAE4"/>
<path d="M146.931 31V14.2H142.563V21.064H141.723C138.387 21.064 138.171 19.12 138.171 16.264V14.2H133.755V16.264C133.755 22.168 135.867 25.144 141.699 25.144H142.563V31H146.931ZM153.802 18.04V31C155.218 31 156.634 31 158.05 31V18.04H162.154C162.154 16.744 162.154 15.472 162.154 14.2H149.674C149.674 15.472 149.674 16.744 149.674 18.04H153.802Z" fill="#EBEAE4"/>
<rect x="185" width="177.717" height="44.4292" fill="#3C666B"/>
<path d="M212.896 30.168L217.792 22.032C218.464 21.048 218.68 19.872 218.68 18.72C218.68 14.76 215.896 12.96 212.224 12.96C208.528 12.96 205.84 14.76 205.84 18.72C205.84 21.912 208.144 24.36 211.696 24.096L208.12 30.168H212.896ZM212.224 16.632C213.544 16.632 214.336 17.544 214.336 18.72C214.336 20.016 213.616 20.832 212.224 20.832C210.952 20.832 210.112 19.944 210.112 18.72C210.112 17.544 210.952 16.632 212.224 16.632ZM223.369 30.144C224.665 30.144 225.721 29.28 225.721 27.96C225.721 26.616 224.665 25.728 223.369 25.728C222.025 25.728 220.969 26.616 220.969 27.96C220.969 29.28 222.025 30.144 223.369 30.144ZM223.369 22.368C224.665 22.368 225.721 21.504 225.721 20.184C225.721 18.84 224.665 17.952 223.369 17.952C222.025 17.952 220.969 18.84 220.969 20.184C220.969 21.504 222.025 22.368 223.369 22.368ZM235.407 12.888C231.999 12.888 229.143 15 229.143 18.672C229.143 20.544 229.143 22.68 229.143 24.552C229.143 28.224 231.999 30.336 235.407 30.336C238.887 30.336 241.719 28.224 241.719 24.552C241.719 22.68 241.719 20.544 241.719 18.672C241.719 15 238.887 12.888 235.407 12.888ZM235.407 26.52C234.183 26.52 233.223 25.824 233.223 24.456C233.223 22.656 233.223 20.568 233.223 18.744C233.223 17.424 234.183 16.728 235.407 16.728C236.679 16.728 237.663 17.424 237.663 18.744C237.663 20.568 237.663 22.656 237.663 24.456C237.663 25.824 236.679 26.52 235.407 26.52ZM251.277 12.888C247.869 12.888 245.013 15 245.013 18.672C245.013 20.544 245.013 22.68 245.013 24.552C245.013 28.224 247.869 30.336 251.277 30.336C254.757 30.336 257.589 28.224 257.589 24.552C257.589 22.68 257.589 20.544 257.589 18.672C257.589 15 254.757 12.888 251.277 12.888ZM251.277 26.52C250.053 26.52 249.093 25.824 249.093 24.456C249.093 22.656 249.093 20.568 249.093 18.744C249.093 17.424 250.053 16.728 251.277 16.728C252.549 16.728 253.533 17.424 253.533 18.744C253.533 20.568 253.533 22.656 253.533 24.456C253.533 25.824 252.549 26.52 251.277 26.52ZM267.287 24.504V22.632H273.095V24.504H267.287ZM283.934 16.68V26.496H281.438V30H290.654V26.496H288.11V13.2H281.654V16.68H283.934ZM304.064 13.2H291.8C291.8 14.664 291.8 15.576 291.8 17.04H298.4L292.856 30C294.32 30 295.808 30 297.272 30L304.064 13.848V13.2ZM307.931 30.144C309.227 30.144 310.283 29.28 310.283 27.96C310.283 26.616 309.227 25.728 307.931 25.728C306.587 25.728 305.531 26.616 305.531 27.96C305.531 29.28 306.587 30.144 307.931 30.144ZM307.931 22.368C309.227 22.368 310.283 21.504 310.283 20.184C310.283 18.84 309.227 17.952 307.931 17.952C306.587 17.952 305.531 18.84 305.531 20.184C305.531 21.504 306.587 22.368 307.931 22.368ZM312.84 24.864C312.84 27.024 314.016 28.728 315.6 29.616C316.416 30.072 317.328 30.336 318.6 30.336C322.488 30.336 324.528 27.336 324.504 24.48C324.504 22.32 323.736 20.16 321.072 19.488L324.168 13.824V13.2H313.488V17.016H318.336L316.104 21.672V22.248C317.928 22.176 320.328 22.08 320.352 24.504C320.328 25.632 319.68 26.52 318.504 26.52C317.352 26.52 316.632 25.968 316.608 24.864C315.384 24.864 314.088 24.864 312.84 24.864ZM333.776 12.888C330.368 12.888 327.512 15 327.512 18.672C327.512 20.544 327.512 22.68 327.512 24.552C327.512 28.224 330.368 30.336 333.776 30.336C337.256 30.336 340.088 28.224 340.088 24.552C340.088 22.68 340.088 20.544 340.088 18.672C340.088 15 337.256 12.888 333.776 12.888ZM333.776 26.52C332.552 26.52 331.592 25.824 331.592 24.456C331.592 22.656 331.592 20.568 331.592 18.744C331.592 17.424 332.552 16.728 333.776 16.728C335.048 16.728 336.032 17.424 336.032 18.744C336.032 20.568 336.032 22.656 336.032 24.456C336.032 25.824 335.048 26.52 333.776 26.52Z" fill="#EBEAE4"/>
<rect x="185" y="49" width="177.717" height="44.4292" fill="#3C666B"/>
<path d="M210.896 79.168L215.792 71.032C216.464 70.048 216.68 68.872 216.68 67.72C216.68 63.76 213.896 61.96 210.224 61.96C206.528 61.96 203.84 63.76 203.84 67.72C203.84 70.912 206.144 73.36 209.696 73.096L206.12 79.168H210.896ZM210.224 65.632C211.544 65.632 212.336 66.544 212.336 67.72C212.336 69.016 211.616 69.832 210.224 69.832C208.952 69.832 208.112 68.944 208.112 67.72C208.112 66.544 208.952 65.632 210.224 65.632ZM221.369 79.144C222.665 79.144 223.721 78.28 223.721 76.96C223.721 75.616 222.665 74.728 221.369 74.728C220.025 74.728 218.969 75.616 218.969 76.96C218.969 78.28 220.025 79.144 221.369 79.144ZM221.369 71.368C222.665 71.368 223.721 70.504 223.721 69.184C223.721 67.84 222.665 66.952 221.369 66.952C220.025 66.952 218.969 67.84 218.969 69.184C218.969 70.504 220.025 71.368 221.369 71.368ZM233.407 61.888C229.999 61.888 227.143 64 227.143 67.672C227.143 69.544 227.143 71.68 227.143 73.552C227.143 77.224 229.999 79.336 233.407 79.336C236.887 79.336 239.719 77.224 239.719 73.552C239.719 71.68 239.719 69.544 239.719 67.672C239.719 64 236.887 61.888 233.407 61.888ZM233.407 75.52C232.183 75.52 231.223 74.824 231.223 73.456C231.223 71.656 231.223 69.568 231.223 67.744C231.223 66.424 232.183 65.728 233.407 65.728C234.679 65.728 235.663 66.424 235.663 67.744C235.663 69.568 235.663 71.656 235.663 73.456C235.663 74.824 234.679 75.52 233.407 75.52ZM249.277 61.888C245.869 61.888 243.013 64 243.013 67.672C243.013 69.544 243.013 71.68 243.013 73.552C243.013 77.224 245.869 79.336 249.277 79.336C252.757 79.336 255.589 77.224 255.589 73.552C255.589 71.68 255.589 69.544 255.589 67.672C255.589 64 252.757 61.888 249.277 61.888ZM249.277 75.52C248.053 75.52 247.093 74.824 247.093 73.456C247.093 71.656 247.093 69.568 247.093 67.744C247.093 66.424 248.053 65.728 249.277 65.728C250.549 65.728 251.533 66.424 251.533 67.744C251.533 69.568 251.533 71.656 251.533 73.456C251.533 74.824 250.549 75.52 249.277 75.52ZM265.287 73.504V71.632H271.095V73.504H265.287ZM281.934 65.68V75.496H279.438V79H288.654V75.496H286.11V62.2H279.654V65.68H281.934ZM295.992 62.056L291.144 70.192C290.496 71.176 290.256 72.328 290.256 73.48C290.256 77.416 293.088 79.264 296.712 79.264C300.288 79.264 303.12 77.416 303.12 73.48C303.12 70 300.768 67.84 297.216 68.104L300.768 62.056H295.992ZM296.712 75.616C295.416 75.616 294.552 74.704 294.552 73.48C294.552 72.352 295.272 71.368 296.712 71.368C298.128 71.368 298.8 72.352 298.8 73.48C298.8 74.704 298.056 75.616 296.712 75.616ZM307.852 79.144C309.148 79.144 310.204 78.28 310.204 76.96C310.204 75.616 309.148 74.728 307.852 74.728C306.508 74.728 305.452 75.616 305.452 76.96C305.452 78.28 306.508 79.144 307.852 79.144ZM307.852 71.368C309.148 71.368 310.204 70.504 310.204 69.184C310.204 67.84 309.148 66.952 307.852 66.952C306.508 66.952 305.452 67.84 305.452 69.184C305.452 70.504 306.508 71.368 307.852 71.368ZM312.762 73.864C312.762 76.024 313.938 77.728 315.522 78.616C316.338 79.072 317.25 79.336 318.522 79.336C322.41 79.336 324.45 76.336 324.426 73.48C324.426 71.32 323.658 69.16 320.994 68.488L324.09 62.824V62.2H313.41V66.016H318.258L316.026 70.672V71.248C317.85 71.176 320.25 71.08 320.274 73.504C320.25 74.632 319.602 75.52 318.426 75.52C317.274 75.52 316.554 74.968 316.53 73.864C315.306 73.864 314.01 73.864 312.762 73.864ZM333.698 61.888C330.29 61.888 327.434 64 327.434 67.672C327.434 69.544 327.434 71.68 327.434 73.552C327.434 77.224 330.29 79.336 333.698 79.336C337.178 79.336 340.01 77.224 340.01 73.552C340.01 71.68 340.01 69.544 340.01 67.672C340.01 64 337.178 61.888 333.698 61.888ZM333.698 75.52C332.474 75.52 331.514 74.824 331.514 73.456C331.514 71.656 331.514 69.568 331.514 67.744C331.514 66.424 332.474 65.728 333.698 65.728C334.97 65.728 335.954 66.424 335.954 67.744C335.954 69.568 335.954 71.656 335.954 73.456C335.954 74.824 334.97 75.52 333.698 75.52Z" fill="#EBEAE4"/>
<path d="M206.024 162.68V172.496H203.528V176H212.744V172.496H210.2V159.2H203.744V162.68H206.024ZM220.649 166.112L214.337 175.352V176H226.145C226.145 174.536 226.145 173.624 226.145 172.16H221.153L224.537 167.456C227.033 163.592 224.921 158.816 220.097 158.936C217.121 159.008 214.673 160.784 214.721 164.408C216.113 164.408 216.953 164.408 218.369 164.408C218.369 163.232 219.065 162.776 220.025 162.776C222.137 162.776 221.489 164.984 220.649 166.112ZM230.63 176.144C231.926 176.144 232.982 175.28 232.982 173.96C232.982 172.616 231.926 171.728 230.63 171.728C229.286 171.728 228.23 172.616 228.23 173.96C228.23 175.28 229.286 176.144 230.63 176.144ZM230.63 168.368C231.926 168.368 232.982 167.504 232.982 166.184C232.982 164.84 231.926 163.952 230.63 163.952C229.286 163.952 228.23 164.84 228.23 166.184C228.23 167.504 229.286 168.368 230.63 168.368ZM235.539 170.864C235.539 173.024 236.715 174.728 238.299 175.616C239.115 176.072 240.027 176.336 241.299 176.336C245.187 176.336 247.227 173.336 247.203 170.48C247.203 168.32 246.435 166.16 243.771 165.488L246.867 159.824V159.2H236.187V163.016H241.035L238.803 167.672V168.248C240.627 168.176 243.027 168.08 243.051 170.504C243.027 171.632 242.379 172.52 241.203 172.52C240.051 172.52 239.331 171.968 239.307 170.864C238.083 170.864 236.787 170.864 235.539 170.864ZM256.475 158.888C253.067 158.888 250.211 161 250.211 164.672C250.211 166.544 250.211 168.68 250.211 170.552C250.211 174.224 253.067 176.336 256.475 176.336C259.955 176.336 262.787 174.224 262.787 170.552C262.787 168.68 262.787 166.544 262.787 164.672C262.787 161 259.955 158.888 256.475 158.888ZM256.475 172.52C255.251 172.52 254.291 171.824 254.291 170.456C254.291 168.656 254.291 166.568 254.291 164.744C254.291 163.424 255.251 162.728 256.475 162.728C257.747 162.728 258.731 163.424 258.731 164.744C258.731 166.568 258.731 168.656 258.731 170.456C258.731 171.824 257.747 172.52 256.475 172.52ZM272.485 170.504V168.632H278.293V170.504H272.485ZM289.132 162.68V172.496H286.636V176H295.852V172.496H293.308V159.2H286.852V162.68H289.132ZM297.478 170.864C297.478 173.024 298.654 174.728 300.238 175.616C301.054 176.072 301.966 176.336 303.238 176.336C307.126 176.336 309.166 173.336 309.142 170.48C309.142 168.32 308.374 166.16 305.71 165.488L308.806 159.824V159.2H298.126V163.016H302.974L300.742 167.672V168.248C302.566 168.176 304.966 168.08 304.99 170.504C304.966 171.632 304.318 172.52 303.142 172.52C301.99 172.52 301.27 171.968 301.246 170.864C300.022 170.864 298.726 170.864 297.478 170.864ZM313.926 176.144C315.222 176.144 316.278 175.28 316.278 173.96C316.278 172.616 315.222 171.728 313.926 171.728C312.582 171.728 311.526 172.616 311.526 173.96C311.526 175.28 312.582 176.144 313.926 176.144ZM313.926 168.368C315.222 168.368 316.278 167.504 316.278 166.184C316.278 164.84 315.222 163.952 313.926 163.952C312.582 163.952 311.526 164.84 311.526 166.184C311.526 167.504 312.582 168.368 313.926 168.368ZM325.963 158.888C322.555 158.888 319.699 161 319.699 164.672C319.699 166.544 319.699 168.68 319.699 170.552C319.699 174.224 322.555 176.336 325.963 176.336C329.443 176.336 332.275 174.224 332.275 170.552C332.275 168.68 332.275 166.544 332.275 164.672C332.275 161 329.443 158.888 325.963 158.888ZM325.963 172.52C324.739 172.52 323.779 171.824 323.779 170.456C323.779 168.656 323.779 166.568 323.779 164.744C323.779 163.424 324.739 162.728 325.963 162.728C327.235 162.728 328.219 163.424 328.219 164.744C328.219 166.568 328.219 168.656 328.219 170.456C328.219 171.824 327.235 172.52 325.963 172.52ZM341.833 158.888C338.425 158.888 335.569 161 335.569 164.672C335.569 166.544 335.569 168.68 335.569 170.552C335.569 174.224 338.425 176.336 341.833 176.336C345.313 176.336 348.145 174.224 348.145 170.552C348.145 168.68 348.145 166.544 348.145 164.672C348.145 161 345.313 158.888 341.833 158.888ZM341.833 172.52C340.609 172.52 339.649 171.824 339.649 170.456C339.649 168.656 339.649 166.568 339.649 164.744C339.649 163.424 340.609 162.728 341.833 162.728C343.105 162.728 344.089 163.424 344.089 164.744C344.089 166.568 344.089 168.656 344.089 170.456C344.089 171.824 343.105 172.52 341.833 172.52Z" fill="#EBEAE4"/>
<rect x="185" y="98" width="177.717" height="44.4292" fill="#3C666B"/>
<path d="M212.544 116.36C212.544 113.456 210.216 111.2 207.312 111.2H200.136V128H208.008C211.44 128 213.216 125.624 213.24 122.696C213.24 121.208 212.592 119.96 211.224 119.264C212.04 118.592 212.544 117.368 212.544 116.36ZM207.696 121.328C209.424 121.328 209.448 124.184 207.72 124.184H204.288V121.328H207.696ZM206.976 115.04C208.704 115.04 208.704 117.752 207 117.752H204.288V115.04H206.976ZM216.709 111.2V128H224.101C232.141 127.976 232.141 116.216 224.101 116.216H221.005V111.2H216.709ZM224.077 120.08C226.429 120.08 226.573 124.136 224.077 124.16C223.069 124.184 221.989 124.16 221.005 124.16V120.08H224.077ZM233.293 128H237.589V111.2H233.293V128ZM247.978 122.72L251.05 128H255.682V127.352L250.234 119.096L255.082 111.848V111.2H250.642L247.954 115.568H247.834L245.17 111.2H240.706V111.848L245.554 119.096L240.13 127.352V128H244.762L247.834 122.72H247.978ZM274.446 119.624C274.446 108.008 257.214 108.008 257.214 119.624C257.214 131.264 274.446 131.264 274.446 119.624ZM261.63 119.624C261.63 113.576 270.054 113.576 270.054 119.624C270.054 125.72 261.63 125.72 261.63 119.624ZM279.26 128.048H289.196V129.896H292.724V124.28H290.972L285.02 110.984H283.172L277.412 124.28H275.708V129.896H279.26V128.048ZM284.084 118.16L286.508 124.232H281.756L284.084 118.16ZM308.994 111.2C307.53 111.2 306.066 111.2 304.602 111.2V117.296H299.418V111.2C297.954 111.2 296.466 111.2 295.026 111.2V128C296.466 128 297.954 128 299.418 128V121.256H304.602V128C306.066 128 307.53 128 308.994 128V111.2ZM329.603 119.624C329.603 108.008 312.371 108.008 312.371 119.624C312.371 131.264 329.603 131.264 329.603 119.624ZM316.787 119.624C316.787 113.576 325.211 113.576 325.211 119.624C325.211 125.72 316.787 125.72 316.787 119.624ZM334.633 128.024H333.097V111.2C334.561 111.2 336.025 111.2 337.489 111.2V119.432L345.985 111.128H347.545V128C346.081 128 344.593 128 343.105 128V119.744L334.633 128.024ZM339.241 105.944C338.401 105.992 337.585 106.088 336.769 106.184C336.841 108.872 338.353 110.288 340.945 110.288C343.609 110.288 345.049 108.872 345.145 106.184C344.329 106.088 343.513 105.992 342.673 105.944C342.529 106.952 341.881 107.264 340.897 107.264C339.889 107.264 339.313 106.832 339.241 105.944Z" fill="#EBEAE4"/>
</svg>
