<svg width="394" height="207" viewBox="0 0 394 207" fill="none" xmlns="http://www.w3.org/2000/svg">
<rect y="53.1047" width="192.911" height="47.6859" fill="#8F998A"/>
<rect y="106.209" width="192.911" height="47.6859" fill="#8F998A"/>
<rect y="159.314" width="192.911" height="47.6859" fill="#8F998A"/>
<rect x="200.497" y="159.314" width="192.911" height="47.6859" fill="#8F998A"/>
<rect x="137.639" y="53.1047" width="48.151" height="47.6859" fill="#8F998A"/>
<path d="M159.186 68.3937C148.146 68.3937 146.658 68.3937 145.218 68.3937V85.1937C146.658 85.1937 148.146 85.1937 149.61 85.1937V72.3537H154.794V85.1937C156.258 85.1937 157.722 85.1937 159.186 85.1937V68.3937ZM166.067 72.2337V85.1937C167.483 85.1937 168.899 85.1937 170.315 85.1937V72.2337H174.419C174.419 70.9377 174.419 69.6657 174.419 68.3937H161.939C161.939 69.6657 161.939 70.9377 161.939 72.2337H166.067Z" fill="#E5E5E5"/>
<rect x="137.639" y="106.209" width="48.151" height="47.6859" fill="#8F998A"/>
<path d="M99.7509 129.899C99.7749 135.611 104.095 138.491 108.367 138.467C111.943 138.467 115.711 136.595 116.335 131.843C114.871 131.843 113.551 131.843 112.111 131.843C111.655 133.643 110.191 134.555 108.367 134.555C105.823 134.531 104.191 132.371 104.191 129.899C104.191 127.115 105.847 125.219 108.367 125.219C110.167 125.219 111.439 125.987 112.039 127.691C113.503 127.691 114.799 127.691 116.263 127.691C115.615 123.203 111.847 121.307 108.367 121.307C104.095 121.307 99.7749 124.187 99.7509 129.899ZM127.114 131.171C129.466 131.171 129.49 134.459 127.114 134.459C126.106 134.459 125.026 134.459 124.042 134.459V131.171H127.114ZM124.042 127.379V125.339H131.818V121.499H119.746V138.299H127.138C135.178 138.275 135.178 127.379 127.138 127.379H124.042Z" fill="#E5E5E5"/>
<path d="M76.5728 172.436C65.5328 172.436 64.0448 172.436 62.6048 172.436V189.236C64.0448 189.236 65.5328 189.236 66.9968 189.236V176.396H72.1808V189.236C73.6448 189.236 75.1088 189.236 76.5728 189.236V172.436ZM91.4701 172.436C87.5341 172.436 84.8701 172.436 80.9821 172.436C80.9821 178.004 80.9821 183.62 80.9821 189.236C84.8701 189.236 87.7501 189.236 91.6861 189.236C91.6861 187.964 91.6861 186.668 91.6861 185.42C89.1661 185.42 87.7261 185.42 85.2541 185.42C85.2541 184.412 85.2541 183.452 85.2541 182.468H90.9661C90.9661 181.196 90.9661 179.924 90.9661 178.652H85.2541V176.276C87.7261 176.276 88.9741 176.276 91.4701 176.276C91.4701 174.98 91.4701 173.684 91.4701 172.436ZM99.7887 189.236V184.94H102.885C110.925 184.94 110.925 172.46 102.885 172.436C100.413 172.436 97.9167 172.436 95.4927 172.436C95.4927 178.052 95.4927 183.644 95.4927 189.236C96.9087 189.236 98.3487 189.236 99.7887 189.236ZM102.861 181.076H99.7887C99.7887 179.708 99.7887 177.644 99.7887 176.276C100.773 176.276 101.853 176.252 102.861 176.276C105.357 176.3 105.213 181.076 102.861 181.076ZM122.765 172.436C118.829 172.436 116.165 172.436 112.277 172.436C112.277 178.004 112.277 183.62 112.277 189.236C116.165 189.236 119.045 189.236 122.981 189.236C122.981 187.964 122.981 186.668 122.981 185.42C120.461 185.42 119.021 185.42 116.549 185.42C116.549 184.412 116.549 183.452 116.549 182.468H122.261C122.261 181.196 122.261 179.924 122.261 178.652H116.549V176.276C119.021 176.276 120.269 176.276 122.765 176.276C122.765 174.98 122.765 173.684 122.765 172.436ZM131.083 189.236V184.94H134.179C142.219 184.94 142.219 172.46 134.179 172.436C131.707 172.436 129.211 172.436 126.787 172.436C126.787 178.052 126.787 183.644 126.787 189.236C128.203 189.236 129.643 189.236 131.083 189.236ZM134.155 181.076H131.083C131.083 179.708 131.083 177.644 131.083 176.276C132.067 176.276 133.147 176.252 134.155 176.276C136.651 176.3 136.507 181.076 134.155 181.076ZM143.571 172.436V189.236H150.963C159.003 189.212 159.003 177.452 150.963 177.452H147.867V172.436H143.571ZM150.939 181.316C153.291 181.316 153.435 185.372 150.939 185.396C149.931 185.42 148.851 185.396 147.867 185.396V181.316H150.939ZM160.155 189.236H164.451V172.436H160.155V189.236ZM181.248 177.596C181.248 174.692 178.92 172.436 176.016 172.436H168.84V189.236H176.712C180.144 189.236 181.92 186.86 181.944 183.932C181.944 182.444 181.296 181.196 179.928 180.5C180.744 179.828 181.248 178.604 181.248 177.596ZM176.4 182.564C178.128 182.564 178.152 185.42 176.424 185.42H172.992V182.564H176.4ZM175.68 176.276C177.408 176.276 177.408 178.988 175.704 178.988H172.992V176.276H175.68Z" fill="#E5E5E5"/>
<path d="M157.602 126.659C157.602 123.755 155.274 121.499 152.37 121.499H145.194V138.299H153.066C156.498 138.299 158.274 135.923 158.298 132.995C158.298 131.507 157.65 130.259 156.282 129.563C157.098 128.891 157.602 127.667 157.602 126.659ZM152.754 131.627C154.482 131.627 154.506 134.483 152.778 134.483H149.346V131.627H152.754ZM152.034 125.339C153.762 125.339 153.762 128.051 152.058 128.051H149.346V125.339H152.034ZM160.759 129.899C160.783 135.611 165.103 138.491 169.375 138.467C172.951 138.467 176.719 136.595 177.343 131.843C175.879 131.843 174.559 131.843 173.119 131.843C172.663 133.643 171.199 134.555 169.375 134.555C166.831 134.531 165.199 132.371 165.199 129.899C165.199 127.115 166.855 125.219 169.375 125.219C171.175 125.219 172.447 125.987 173.047 127.691C174.511 127.691 175.807 127.691 177.271 127.691C176.623 123.203 172.855 121.307 169.375 121.307C165.103 121.307 160.783 124.187 160.759 129.899Z" fill="#E5E5E5"/>
<rect width="192.604" height="48.151" fill="#8F998A"/>
<path d="M30.5845 15.2891C19.5445 15.2891 18.0565 15.2891 16.6165 15.2891V32.0891C18.0565 32.0891 19.5445 32.0891 21.0085 32.0891V19.2491H26.1925V32.0891C27.6565 32.0891 29.1205 32.0891 30.5845 32.0891V15.2891ZM48.9858 15.2891C47.5218 15.2891 46.0578 15.2891 44.5938 15.2891V21.3851H39.4098V15.2891C37.9458 15.2891 36.4578 15.2891 35.0178 15.2891V32.0891C36.4578 32.0891 37.9458 32.0891 39.4098 32.0891V25.3451H44.5938V32.0891C46.0578 32.0891 47.5218 32.0891 48.9858 32.0891V15.2891Z" fill="#E5E5E5"/>
<path d="M74.5192 20.4491C74.5192 17.5451 72.1912 15.2891 69.2872 15.2891H62.1112V32.0891H69.9832C73.4152 32.0891 75.1912 29.7131 75.2152 26.7851C75.2152 25.2971 74.5672 24.0491 73.1992 23.3531C74.0152 22.6811 74.5192 21.4571 74.5192 20.4491ZM69.6712 25.4171C71.3992 25.4171 71.4232 28.2731 69.6952 28.2731H66.2632V25.4171H69.6712ZM68.9512 19.1291C70.6792 19.1291 70.6792 21.8411 68.9752 21.8411H66.2632V19.1291H68.9512ZM81.1563 19.1291V32.0891C82.5723 32.0891 83.9883 32.0891 85.4043 32.0891V19.1291H89.5083C89.5083 17.8331 89.5083 16.5611 89.5083 15.2891H77.0283C77.0283 16.5611 77.0283 17.8331 77.0283 19.1291H81.1563Z" fill="#E5E5E5"/>
<path d="M100.119 23.6891C100.143 29.4011 104.463 32.2811 108.735 32.2571C112.311 32.2571 116.079 30.3851 116.703 25.6331C115.239 25.6331 113.919 25.6331 112.479 25.6331C112.023 27.4331 110.559 28.3451 108.735 28.3451C106.191 28.3211 104.559 26.1611 104.559 23.6891C104.559 20.9051 106.215 19.0091 108.735 19.0091C110.535 19.0091 111.807 19.7771 112.407 21.4811C113.871 21.4811 115.167 21.4811 116.631 21.4811C115.983 16.9931 112.215 15.0971 108.735 15.0971C104.463 15.0971 100.143 17.9771 100.119 23.6891ZM124.41 32.0891V27.7931H127.506C135.546 27.7931 135.546 15.3131 127.506 15.2891C125.034 15.2891 122.538 15.2891 120.114 15.2891C120.114 20.9051 120.114 26.4971 120.114 32.0891C121.53 32.0891 122.97 32.0891 124.41 32.0891ZM127.482 23.9291H124.41C124.41 22.5611 124.41 20.4971 124.41 19.1291C125.394 19.1291 126.474 19.1051 127.482 19.1291C129.978 19.1531 129.834 23.9291 127.482 23.9291Z" fill="#E5E5E5"/>
<path d="M158.017 32.0891V15.2891H153.649V22.1531H152.809C149.473 22.1531 149.257 20.2091 149.257 17.3531V15.2891H144.841V17.3531C144.841 23.2571 146.953 26.2331 152.785 26.2331H153.649V32.0891H158.017ZM164.888 19.1291V32.0891C166.304 32.0891 167.72 32.0891 169.136 32.0891V19.1291H173.24C173.24 17.8331 173.24 16.5611 173.24 15.2891H160.76C160.76 16.5611 160.76 17.8331 160.76 19.1291H164.888Z" fill="#E5E5E5"/>
<rect x="200.497" width="192.604" height="48.151" fill="#8F998A"/>
<path d="M230.069 31.1731L234.965 23.0371C235.637 22.0531 235.853 20.8771 235.853 19.7251C235.853 15.7651 233.069 13.9651 229.397 13.9651C225.701 13.9651 223.013 15.7651 223.013 19.7251C223.013 22.9171 225.317 25.3651 228.869 25.1011L225.293 31.1731H230.069ZM229.397 17.6371C230.717 17.6371 231.509 18.5491 231.509 19.7251C231.509 21.0211 230.789 21.8371 229.397 21.8371C228.125 21.8371 227.285 20.9491 227.285 19.7251C227.285 18.5491 228.125 17.6371 229.397 17.6371ZM240.542 31.1491C241.838 31.1491 242.894 30.2851 242.894 28.9651C242.894 27.6211 241.838 26.7331 240.542 26.7331C239.198 26.7331 238.142 27.6211 238.142 28.9651C238.142 30.2851 239.198 31.1491 240.542 31.1491ZM240.542 23.3731C241.838 23.3731 242.894 22.5091 242.894 21.1891C242.894 19.8451 241.838 18.9571 240.542 18.9571C239.198 18.9571 238.142 19.8451 238.142 21.1891C238.142 22.5091 239.198 23.3731 240.542 23.3731ZM252.58 13.8931C249.172 13.8931 246.316 16.0051 246.316 19.6771C246.316 21.5491 246.316 23.6851 246.316 25.5571C246.316 29.2291 249.172 31.3411 252.58 31.3411C256.06 31.3411 258.892 29.2291 258.892 25.5571C258.892 23.6851 258.892 21.5491 258.892 19.6771C258.892 16.0051 256.06 13.8931 252.58 13.8931ZM252.58 27.5251C251.356 27.5251 250.396 26.8291 250.396 25.4611C250.396 23.6611 250.396 21.5731 250.396 19.7491C250.396 18.4291 251.356 17.7331 252.58 17.7331C253.852 17.7331 254.836 18.4291 254.836 19.7491C254.836 21.5731 254.836 23.6611 254.836 25.4611C254.836 26.8291 253.852 27.5251 252.58 27.5251ZM268.45 13.8931C265.042 13.8931 262.186 16.0051 262.186 19.6771C262.186 21.5491 262.186 23.6851 262.186 25.5571C262.186 29.2291 265.042 31.3411 268.45 31.3411C271.93 31.3411 274.762 29.2291 274.762 25.5571C274.762 23.6851 274.762 21.5491 274.762 19.6771C274.762 16.0051 271.93 13.8931 268.45 13.8931ZM268.45 27.5251C267.226 27.5251 266.266 26.8291 266.266 25.4611C266.266 23.6611 266.266 21.5731 266.266 19.7491C266.266 18.4291 267.226 17.7331 268.45 17.7331C269.722 17.7331 270.706 18.4291 270.706 19.7491C270.706 21.5731 270.706 23.6611 270.706 25.4611C270.706 26.8291 269.722 27.5251 268.45 27.5251ZM299.982 17.6851V27.5011H297.486V31.0051H306.702V27.5011H304.158V14.2051H297.702V17.6851H299.982ZM320.112 14.2051H307.848C307.848 15.6691 307.848 16.5811 307.848 18.0451H314.448L308.904 31.0051C310.368 31.0051 311.856 31.0051 313.32 31.0051L320.112 14.8531V14.2051ZM323.978 31.1491C325.274 31.1491 326.33 30.2851 326.33 28.9651C326.33 27.6211 325.274 26.7331 323.978 26.7331C322.634 26.7331 321.578 27.6211 321.578 28.9651C321.578 30.2851 322.634 31.1491 323.978 31.1491ZM323.978 23.3731C325.274 23.3731 326.33 22.5091 326.33 21.1891C326.33 19.8451 325.274 18.9571 323.978 18.9571C322.634 18.9571 321.578 19.8451 321.578 21.1891C321.578 22.5091 322.634 23.3731 323.978 23.3731ZM328.888 25.8691C328.888 28.0291 330.064 29.7331 331.648 30.6211C332.464 31.0771 333.376 31.3411 334.648 31.3411C338.536 31.3411 340.576 28.3411 340.552 25.4851C340.552 23.3251 339.784 21.1651 337.12 20.4931L340.216 14.8291V14.2051H329.536V18.0211H334.384L332.152 22.6771V23.2531C333.976 23.1811 336.376 23.0851 336.4 25.5091C336.376 26.6371 335.728 27.5251 334.552 27.5251C333.4 27.5251 332.68 26.9731 332.656 25.8691C331.432 25.8691 330.136 25.8691 328.888 25.8691ZM349.824 13.8931C346.416 13.8931 343.56 16.0051 343.56 19.6771C343.56 21.5491 343.56 23.6851 343.56 25.5571C343.56 29.2291 346.416 31.3411 349.824 31.3411C353.304 31.3411 356.136 29.2291 356.136 25.5571C356.136 23.6851 356.136 21.5491 356.136 19.6771C356.136 16.0051 353.304 13.8931 349.824 13.8931ZM349.824 27.5251C348.6 27.5251 347.64 26.8291 347.64 25.4611C347.64 23.6611 347.64 21.5731 347.64 19.7491C347.64 18.4291 348.6 17.7331 349.824 17.7331C351.096 17.7331 352.08 18.4291 352.08 19.7491C352.08 21.5731 352.08 23.6611 352.08 25.4611C352.08 26.8291 351.096 27.5251 349.824 27.5251Z" fill="#E5E5E5"/>
<rect x="200.497" y="53.1047" width="192.604" height="48.151" fill="#8F998A"/>
<path d="M227.901 84.2779L232.797 76.1419C233.469 75.1579 233.685 73.9819 233.685 72.8299C233.685 68.8699 230.901 67.0699 227.229 67.0699C223.533 67.0699 220.845 68.8699 220.845 72.8299C220.845 76.0219 223.149 78.4699 226.701 78.2059L223.125 84.2779H227.901ZM227.229 70.7419C228.549 70.7419 229.341 71.6539 229.341 72.8299C229.341 74.1259 228.621 74.9419 227.229 74.9419C225.957 74.9419 225.117 74.0539 225.117 72.8299C225.117 71.6539 225.957 70.7419 227.229 70.7419ZM238.374 84.2539C239.67 84.2539 240.726 83.3899 240.726 82.0699C240.726 80.7259 239.67 79.8379 238.374 79.8379C237.03 79.8379 235.974 80.7259 235.974 82.0699C235.974 83.3899 237.03 84.2539 238.374 84.2539ZM238.374 76.4779C239.67 76.4779 240.726 75.6139 240.726 74.2939C240.726 72.9499 239.67 72.0619 238.374 72.0619C237.03 72.0619 235.974 72.9499 235.974 74.2939C235.974 75.6139 237.03 76.4779 238.374 76.4779ZM250.412 66.9979C247.004 66.9979 244.148 69.1099 244.148 72.7819C244.148 74.6539 244.148 76.7899 244.148 78.6619C244.148 82.3339 247.004 84.4459 250.412 84.4459C253.892 84.4459 256.724 82.3339 256.724 78.6619C256.724 76.7899 256.724 74.6539 256.724 72.7819C256.724 69.1099 253.892 66.9979 250.412 66.9979ZM250.412 80.6299C249.188 80.6299 248.228 79.9339 248.228 78.5659C248.228 76.7659 248.228 74.6779 248.228 72.8539C248.228 71.5339 249.188 70.8379 250.412 70.8379C251.684 70.8379 252.668 71.5339 252.668 72.8539C252.668 74.6779 252.668 76.7659 252.668 78.5659C252.668 79.9339 251.684 80.6299 250.412 80.6299ZM266.282 66.9979C262.874 66.9979 260.018 69.1099 260.018 72.7819C260.018 74.6539 260.018 76.7899 260.018 78.6619C260.018 82.3339 262.874 84.4459 266.282 84.4459C269.762 84.4459 272.594 82.3339 272.594 78.6619C272.594 76.7899 272.594 74.6539 272.594 72.7819C272.594 69.1099 269.762 66.9979 266.282 66.9979ZM266.282 80.6299C265.058 80.6299 264.098 79.9339 264.098 78.5659C264.098 76.7659 264.098 74.6779 264.098 72.8539C264.098 71.5339 265.058 70.8379 266.282 70.8379C267.554 70.8379 268.538 71.5339 268.538 72.8539C268.538 74.6779 268.538 76.7659 268.538 78.5659C268.538 79.9339 267.554 80.6299 266.282 80.6299ZM297.814 70.7899V80.6059H295.318V84.1099H304.534V80.6059H301.99V67.3099H295.534V70.7899H297.814ZM311.872 67.1659L307.024 75.3019C306.376 76.2859 306.136 77.4379 306.136 78.5899C306.136 82.5259 308.968 84.3739 312.592 84.3739C316.168 84.3739 319 82.5259 319 78.5899C319 75.1099 316.648 72.9499 313.096 73.2139L316.648 67.1659H311.872ZM312.592 80.7259C311.296 80.7259 310.432 79.8139 310.432 78.5899C310.432 77.4619 311.152 76.4779 312.592 76.4779C314.008 76.4779 314.68 77.4619 314.68 78.5899C314.68 79.8139 313.936 80.7259 312.592 80.7259ZM323.733 84.2539C325.029 84.2539 326.085 83.3899 326.085 82.0699C326.085 80.7259 325.029 79.8379 323.733 79.8379C322.389 79.8379 321.333 80.7259 321.333 82.0699C321.333 83.3899 322.389 84.2539 323.733 84.2539ZM323.733 76.4779C325.029 76.4779 326.085 75.6139 326.085 74.2939C326.085 72.9499 325.029 72.0619 323.733 72.0619C322.389 72.0619 321.333 72.9499 321.333 74.2939C321.333 75.6139 322.389 76.4779 323.733 76.4779ZM328.642 78.9739C328.642 81.1339 329.818 82.8379 331.402 83.7259C332.218 84.1819 333.13 84.4459 334.402 84.4459C338.29 84.4459 340.33 81.4459 340.306 78.5899C340.306 76.4299 339.538 74.2699 336.874 73.5979L339.97 67.9339V67.3099H329.29V71.1259H334.138L331.906 75.7819V76.3579C333.73 76.2859 336.13 76.1899 336.154 78.6139C336.13 79.7419 335.482 80.6299 334.306 80.6299C333.154 80.6299 332.434 80.0779 332.41 78.9739C331.186 78.9739 329.89 78.9739 328.642 78.9739ZM349.578 66.9979C346.17 66.9979 343.314 69.1099 343.314 72.7819C343.314 74.6539 343.314 76.7899 343.314 78.6619C343.314 82.3339 346.17 84.4459 349.578 84.4459C353.058 84.4459 355.89 82.3339 355.89 78.6619C355.89 76.7899 355.89 74.6539 355.89 72.7819C355.89 69.1099 353.058 66.9979 349.578 66.9979ZM349.578 80.6299C348.354 80.6299 347.394 79.9339 347.394 78.5659C347.394 76.7659 347.394 74.6779 347.394 72.8539C347.394 71.5339 348.354 70.8379 349.578 70.8379C350.85 70.8379 351.834 71.5339 351.834 72.8539C351.834 74.6779 351.834 76.7659 351.834 78.5659C351.834 79.9339 350.85 80.6299 349.578 80.6299Z" fill="#E5E5E5"/>
<path d="M223.029 175.916V185.732H220.533V189.236H229.749V185.732H227.205V172.436H220.749V175.916H223.029ZM237.654 179.348L231.342 188.588V189.236H243.15C243.15 187.772 243.15 186.86 243.15 185.396H238.158L241.542 180.692C244.038 176.828 241.926 172.052 237.102 172.172C234.126 172.244 231.678 174.02 231.726 177.644C233.118 177.644 233.958 177.644 235.374 177.644C235.374 176.468 236.07 176.012 237.03 176.012C239.142 176.012 238.494 178.22 237.654 179.348ZM247.635 189.38C248.931 189.38 249.987 188.516 249.987 187.196C249.987 185.852 248.931 184.964 247.635 184.964C246.291 184.964 245.235 185.852 245.235 187.196C245.235 188.516 246.291 189.38 247.635 189.38ZM247.635 181.604C248.931 181.604 249.987 180.74 249.987 179.42C249.987 178.076 248.931 177.188 247.635 177.188C246.291 177.188 245.235 178.076 245.235 179.42C245.235 180.74 246.291 181.604 247.635 181.604ZM252.544 184.1C252.544 186.26 253.72 187.964 255.304 188.852C256.12 189.308 257.032 189.572 258.304 189.572C262.192 189.572 264.232 186.572 264.208 183.716C264.208 181.556 263.44 179.396 260.776 178.724L263.872 173.06V172.436H253.192V176.252H258.04L255.808 180.908V181.484C257.632 181.412 260.032 181.316 260.056 183.74C260.032 184.868 259.384 185.756 258.208 185.756C257.056 185.756 256.336 185.204 256.312 184.1C255.088 184.1 253.792 184.1 252.544 184.1ZM273.48 172.124C270.072 172.124 267.216 174.236 267.216 177.908C267.216 179.78 267.216 181.916 267.216 183.788C267.216 187.46 270.072 189.572 273.48 189.572C276.96 189.572 279.792 187.46 279.792 183.788C279.792 181.916 279.792 179.78 279.792 177.908C279.792 174.236 276.96 172.124 273.48 172.124ZM273.48 185.756C272.256 185.756 271.296 185.06 271.296 183.692C271.296 181.892 271.296 179.804 271.296 177.98C271.296 176.66 272.256 175.964 273.48 175.964C274.752 175.964 275.736 176.66 275.736 177.98C275.736 179.804 275.736 181.892 275.736 183.692C275.736 185.06 274.752 185.756 273.48 185.756ZM305.013 175.916V185.732H302.517V189.236H311.733V185.732H309.189V172.436H302.733V175.916H305.013ZM313.358 184.1C313.358 186.26 314.534 187.964 316.118 188.852C316.934 189.308 317.846 189.572 319.118 189.572C323.006 189.572 325.046 186.572 325.022 183.716C325.022 181.556 324.254 179.396 321.59 178.724L324.686 173.06V172.436H314.006V176.252H318.854L316.622 180.908V181.484C318.446 181.412 320.846 181.316 320.87 183.74C320.846 184.868 320.198 185.756 319.022 185.756C317.87 185.756 317.15 185.204 317.126 184.1C315.902 184.1 314.606 184.1 313.358 184.1ZM329.806 189.38C331.102 189.38 332.158 188.516 332.158 187.196C332.158 185.852 331.102 184.964 329.806 184.964C328.462 184.964 327.406 185.852 327.406 187.196C327.406 188.516 328.462 189.38 329.806 189.38ZM329.806 181.604C331.102 181.604 332.158 180.74 332.158 179.42C332.158 178.076 331.102 177.188 329.806 177.188C328.462 177.188 327.406 178.076 327.406 179.42C327.406 180.74 328.462 181.604 329.806 181.604ZM341.843 172.124C338.435 172.124 335.579 174.236 335.579 177.908C335.579 179.78 335.579 181.916 335.579 183.788C335.579 187.46 338.435 189.572 341.843 189.572C345.323 189.572 348.155 187.46 348.155 183.788C348.155 181.916 348.155 179.78 348.155 177.908C348.155 174.236 345.323 172.124 341.843 172.124ZM341.843 185.756C340.619 185.756 339.659 185.06 339.659 183.692C339.659 181.892 339.659 179.804 339.659 177.98C339.659 176.66 340.619 175.964 341.843 175.964C343.115 175.964 344.099 176.66 344.099 177.98C344.099 179.804 344.099 181.892 344.099 183.692C344.099 185.06 343.115 185.756 341.843 185.756ZM357.713 172.124C354.305 172.124 351.449 174.236 351.449 177.908C351.449 179.78 351.449 181.916 351.449 183.788C351.449 187.46 354.305 189.572 357.713 189.572C361.193 189.572 364.025 187.46 364.025 183.788C364.025 181.916 364.025 179.78 364.025 177.908C364.025 174.236 361.193 172.124 357.713 172.124ZM357.713 185.756C356.489 185.756 355.529 185.06 355.529 183.692C355.529 181.892 355.529 179.804 355.529 177.98C355.529 176.66 356.489 175.964 357.713 175.964C358.985 175.964 359.969 176.66 359.969 177.98C359.969 179.804 359.969 181.892 359.969 183.692C359.969 185.06 358.985 185.756 357.713 185.756Z" fill="#E5E5E5"/>
<rect x="200.497" y="106.209" width="192.604" height="48.151" fill="#8F998A"/>
<path d="M229.13 125.575C229.13 122.671 226.802 120.415 223.898 120.415H216.722V137.215H224.594C228.026 137.215 229.802 134.839 229.826 131.911C229.826 130.423 229.178 129.175 227.81 128.479C228.626 127.807 229.13 126.583 229.13 125.575ZM224.282 130.543C226.01 130.543 226.034 133.399 224.306 133.399H220.874V130.543H224.282ZM223.562 124.255C225.29 124.255 225.29 126.967 223.586 126.967H220.874V124.255H223.562ZM233.295 120.415V137.215H240.687C248.727 137.191 248.727 125.431 240.687 125.431H237.591V120.415H233.295ZM240.663 129.295C243.015 129.295 243.159 133.351 240.663 133.375C239.655 133.399 238.575 133.375 237.591 133.375V129.295H240.663ZM249.879 137.215H254.175V120.415H249.879V137.215ZM264.564 131.935L267.636 137.215H272.268V136.567L266.82 128.311L271.668 121.063V120.415H267.228L264.54 124.783H264.42L261.756 120.415H257.292V121.063L262.14 128.311L256.716 136.567V137.215H261.348L264.42 131.935H264.564ZM291.032 128.839C291.032 117.223 273.8 117.223 273.8 128.839C273.8 140.479 291.032 140.479 291.032 128.839ZM278.216 128.839C278.216 122.791 286.64 122.791 286.64 128.839C286.64 134.935 278.216 134.935 278.216 128.839ZM295.846 137.263H305.782V139.111H309.31V133.495H307.558L301.606 120.199H299.758L293.998 133.495H292.294V139.111H295.846V137.263ZM300.67 127.375L303.094 133.447H298.342L300.67 127.375ZM325.58 120.415C324.116 120.415 322.652 120.415 321.188 120.415V126.511H316.004V120.415C314.54 120.415 313.052 120.415 311.612 120.415V137.215C313.052 137.215 314.54 137.215 316.004 137.215V130.471H321.188V137.215C322.652 137.215 324.116 137.215 325.58 137.215V120.415ZM346.189 128.839C346.189 117.223 328.957 117.223 328.957 128.839C328.957 140.479 346.189 140.479 346.189 128.839ZM333.373 128.839C333.373 122.791 341.797 122.791 341.797 128.839C341.797 134.935 333.373 134.935 333.373 128.839ZM351.219 137.239H349.683V120.415C351.147 120.415 352.611 120.415 354.075 120.415V128.647L362.571 120.343H364.131V137.215C362.667 137.215 361.179 137.215 359.691 137.215V128.959L351.219 137.239ZM355.827 115.159C354.987 115.207 354.171 115.303 353.355 115.399C353.427 118.087 354.939 119.503 357.531 119.503C360.195 119.503 361.635 118.087 361.731 115.399C360.915 115.303 360.099 115.207 359.259 115.159C359.115 116.167 358.467 116.479 357.483 116.479C356.475 116.479 355.899 116.047 355.827 115.159Z" fill="#E5E5E5"/>
</svg>
