<svg width="113" height="34" viewBox="0 0 113 34" fill="none" xmlns="http://www.w3.org/2000/svg">
<circle cx="16.6667" cy="16.6667" r="16.6667" fill="#3C666B"/>
<circle cx="23.177" cy="21.6146" r="11.7188" fill="#EBEAE4"/>
<path d="M18.35 22.018H22.076V22.711H23.399V20.605H22.742L20.51 15.619H19.817L17.657 20.605H17.018V22.711H18.35V22.018ZM20.159 18.31L21.068 20.587H19.286L20.159 18.31ZM27.9702 18.904V22C28.5282 22 29.0862 22 29.6352 22V15.673H29.0502L25.8642 18.787V15.7C25.3152 15.7 24.7662 15.7 24.2172 15.7V22.009H24.7932L27.9702 18.904ZM32.4453 17.284C32.4453 17.05 32.6523 16.915 33.0033 16.915C33.7593 16.915 33.7773 18.013 32.9853 18.013H32.5623V19.327H33.0033C34.0833 19.327 34.0833 20.758 33.0033 20.758C32.5353 20.758 32.2113 20.443 32.2113 19.948H30.7983C30.7983 21.361 31.6353 22.117 33.0033 22.117C34.6233 22.117 35.4333 21.253 35.4333 20.137C35.4333 19.426 35.1633 18.922 34.5243 18.58C34.8933 18.301 35.0733 17.824 35.0733 17.41C35.0733 16.492 34.3803 15.583 33.0033 15.583C31.9053 15.583 30.9603 16.123 31.0143 17.284H32.4453ZM40.6322 22H42.2072V21.766L39.3632 15.619H38.6702L35.8352 21.766V22H37.4102L37.7792 21.208H40.2632L40.6322 22ZM39.7412 19.831H38.3012L39.0122 18.175L39.7412 19.831ZM43.6644 22.009H43.0884V15.7C43.6374 15.7 44.1864 15.7 44.7354 15.7V18.787L47.9214 15.673H48.5064V22C47.9574 22 47.3994 22 46.8414 22V18.904L43.6644 22.009ZM45.3924 13.729C45.0774 13.747 44.7714 13.783 44.4654 13.819C44.4924 14.827 45.0594 15.358 46.0314 15.358C47.0304 15.358 47.5704 14.827 47.6064 13.819C47.3004 13.783 46.9944 13.747 46.6794 13.729C46.6254 14.107 46.3824 14.224 46.0134 14.224C45.6354 14.224 45.4194 14.062 45.3924 13.729ZM55.3039 15.7C54.7549 15.7 54.2059 15.7 53.6569 15.7V17.986H51.7129V15.7C51.1639 15.7 50.6059 15.7 50.0659 15.7V22C50.6059 22 51.1639 22 51.7129 22V19.471H53.6569V22C54.2059 22 54.7549 22 55.3039 22V15.7ZM63.1528 18.904V22C63.7108 22 64.2688 22 64.8178 22V15.673H64.2328L61.0468 18.787V15.7C60.4978 15.7 59.9488 15.7 59.3998 15.7V22.009H59.9758L63.1528 18.904ZM73.5624 17.635C73.5624 16.546 72.6894 15.7 71.6004 15.7H68.9094V22H71.8614C73.1484 22 73.8144 21.109 73.8234 20.011C73.8234 19.453 73.5804 18.985 73.0674 18.724C73.3734 18.472 73.5624 18.013 73.5624 17.635ZM71.7444 19.498C72.3924 19.498 72.4014 20.569 71.7534 20.569H70.4664V19.498H71.7444ZM71.4744 17.14C72.1224 17.14 72.1224 18.157 71.4834 18.157H70.4664V17.14H71.4744ZM79.0123 15.7C77.5363 15.7 76.5373 15.7 75.0793 15.7C75.0793 17.788 75.0793 19.894 75.0793 22C76.5373 22 77.6173 22 79.0933 22C79.0933 21.523 79.0933 21.037 79.0933 20.569C78.1483 20.569 77.6083 20.569 76.6813 20.569C76.6813 20.191 76.6813 19.831 76.6813 19.462H78.8233C78.8233 18.985 78.8233 18.508 78.8233 18.031H76.6813V17.14C77.6083 17.14 78.0763 17.14 79.0123 17.14C79.0123 16.654 79.0123 16.168 79.0123 15.7ZM82.0868 22V20.389H83.2478C86.2628 20.389 86.2628 15.709 83.2478 15.7C82.3208 15.7 81.3848 15.7 80.4758 15.7C80.4758 17.806 80.4758 19.903 80.4758 22C81.0068 22 81.5468 22 82.0868 22ZM83.2388 18.94H82.0868C82.0868 18.427 82.0868 17.653 82.0868 17.14C82.4558 17.14 82.8608 17.131 83.2388 17.14C84.1748 17.149 84.1208 18.94 83.2388 18.94ZM86.3468 18.85C86.3558 20.992 87.9758 22.072 89.5778 22.063C90.9188 22.063 92.3318 21.361 92.5658 19.579C92.0168 19.579 91.5218 19.579 90.9818 19.579C90.8108 20.254 90.2618 20.596 89.5778 20.596C88.6238 20.587 88.0118 19.777 88.0118 18.85C88.0118 17.806 88.6328 17.095 89.5778 17.095C90.2528 17.095 90.7298 17.383 90.9548 18.022C91.5038 18.022 91.9898 18.022 92.5388 18.022C92.2958 16.339 90.8828 15.628 89.5778 15.628C87.9758 15.628 86.3558 16.708 86.3468 18.85ZM94.727 17.14V22C95.258 22 95.789 22 96.32 22V17.14H97.859C97.859 16.654 97.859 16.177 97.859 15.7H93.179C93.179 16.177 93.179 16.654 93.179 17.14H94.727ZM100.501 22V19.597C100.708 19.597 100.906 19.597 101.122 19.561L102.508 22H104.299V21.748L102.589 18.976C103.84 18.175 103.804 16.987 103.804 15.7C103.246 15.7 102.697 15.7 102.148 15.7C102.148 16.879 102.229 18.085 100.618 18.085H100.501V15.7C99.9427 15.7 99.4027 15.7 98.8627 15.7V22C99.4027 22 99.9427 22 100.501 22ZM109.609 22H111.184V21.766L108.34 15.619H107.647L104.812 21.766V22H106.387L106.756 21.208H109.24L109.609 22ZM108.718 19.831H107.278L107.989 18.175L108.718 19.831ZM20.852 27.418L18.386 24.682H17.792V31C18.341 31 18.89 31 19.439 31V28.192L20.771 29.596H20.951L22.292 28.192V31C22.841 31 23.39 31 23.939 31V24.682H23.363L20.852 27.418ZM29.5492 31H31.1242V30.766L28.2802 24.619H27.5872L24.7522 30.766V31H26.3272L26.6962 30.208H29.1802L29.5492 31ZM28.6492 28.822H27.2272L27.9292 27.166L28.6492 28.822ZM36.0374 28.768C37.6304 27.688 37.1804 24.709 34.7054 24.7C33.7874 24.7 32.8514 24.7 31.9424 24.7C31.9424 26.806 31.9424 28.903 31.9424 31C32.4644 31 33.0134 31 33.5534 31V29.146H34.3904L35.4704 31H37.2704V30.766L36.0374 28.768ZM34.7054 27.697H33.5534C33.5534 27.193 33.5534 26.653 33.5534 26.14C33.9314 26.14 34.3274 26.131 34.7054 26.14C35.6234 26.149 35.5784 27.697 34.7054 27.697ZM39.1714 26.14V31C39.7024 31 40.2334 31 40.7644 31V26.14H42.3034C42.3034 25.654 42.3034 25.177 42.3034 24.7H37.6234C37.6234 25.177 37.6234 25.654 37.6234 26.14H39.1714ZM44.4141 29.074C43.8651 29.074 43.3971 29.074 42.8571 29.074C42.8211 31.846 47.9511 31.774 47.9511 29.128C47.9511 27.553 46.7271 27.391 45.4761 27.256C44.9091 27.193 44.4411 27.094 44.4771 26.617C44.5311 25.87 46.2231 25.798 46.2231 26.635C46.7721 26.635 47.1861 26.635 47.7531 26.635C47.7891 23.917 42.8931 23.917 42.9471 26.635C42.9651 28.003 43.8651 28.471 45.2331 28.57C45.8631 28.606 46.3851 28.678 46.3851 29.119C46.3851 29.857 44.4141 29.875 44.4141 29.074ZM50.25 29.074C49.701 29.074 49.233 29.074 48.693 29.074C48.657 31.846 53.787 31.774 53.787 29.128C53.787 27.553 52.563 27.391 51.312 27.256C50.745 27.193 50.277 27.094 50.313 26.617C50.367 25.87 52.059 25.798 52.059 26.635C52.608 26.635 53.022 26.635 53.589 26.635C53.625 23.917 48.729 23.917 48.783 26.635C48.801 28.003 49.701 28.471 51.069 28.57C51.699 28.606 52.221 28.678 52.221 29.119C52.221 29.857 50.25 29.875 50.25 29.074ZM55.8969 26.14V31C56.4279 31 56.9589 31 57.4899 31V26.14H59.0289C59.0289 25.654 59.0289 25.177 59.0289 24.7H54.3489C54.3489 25.177 54.3489 25.654 54.3489 26.14H55.8969ZM62.4627 29.641C61.9947 29.641 61.4997 29.389 61.4997 28.876V24.7C60.9957 24.7 60.4647 24.7 59.9607 24.7V28.903C59.9607 30.289 61.1757 31.09 62.4627 31.09C63.7587 31.09 64.9737 30.289 64.9737 28.903V24.7C64.4697 24.7 63.9297 24.7 63.4167 24.7V28.876C63.4167 29.389 62.9307 29.641 62.4627 29.641ZM68.8948 24.7H66.5188V31H68.8948C72.9988 30.982 72.9988 24.718 68.8948 24.7ZM68.1298 26.167H68.8948C70.9018 26.167 70.9018 29.533 68.8948 29.533H68.1298V26.167ZM75.0705 29.587V26.104H75.8085C75.8085 25.564 75.8085 25.231 75.8085 24.7C74.7825 24.7 73.7655 24.7 72.7395 24.7C72.7395 25.231 72.7395 25.564 72.7395 26.104H73.4775V29.587H72.6765C72.6765 30.118 72.6765 30.451 72.6765 31C73.7475 31 74.8005 31 75.8715 31C75.8715 30.451 75.8715 30.118 75.8715 29.587H75.0705ZM83 27.859C83 23.503 76.538 23.503 76.538 27.859C76.538 32.224 83 32.224 83 27.859ZM78.194 27.859C78.194 25.591 81.353 25.591 81.353 27.859C81.353 30.145 78.194 30.145 78.194 27.859ZM84.6702 31.054C85.1562 31.054 85.5522 30.73 85.5522 30.235C85.5522 29.731 85.1562 29.398 84.6702 29.398C84.1662 29.398 83.7702 29.731 83.7702 30.235C83.7702 30.73 84.1662 31.054 84.6702 31.054ZM90.8548 28.768C92.4478 27.688 91.9978 24.709 89.5228 24.7C88.6048 24.7 87.6688 24.7 86.7598 24.7C86.7598 26.806 86.7598 28.903 86.7598 31C87.2818 31 87.8308 31 88.3708 31V29.146H89.2078L90.2878 31H92.0878V30.766L90.8548 28.768ZM89.5228 27.697H88.3708C88.3708 27.193 88.3708 26.653 88.3708 26.14C88.7488 26.14 89.1448 26.131 89.5228 26.14C90.4408 26.149 90.3958 27.697 89.5228 27.697ZM95.5007 29.641C95.0327 29.641 94.5377 29.389 94.5377 28.876V24.7C94.0337 24.7 93.5027 24.7 92.9987 24.7V28.903C92.9987 30.289 94.2137 31.09 95.5007 31.09C96.7967 31.09 98.0117 30.289 98.0117 28.903V24.7C97.5077 24.7 96.9677 24.7 96.4547 24.7V28.876C96.4547 29.389 95.9687 29.641 95.5007 29.641Z" fill="#3C666B"/>
</svg>
