<svg width="134" height="34" viewBox="0 0 134 34" fill="none" xmlns="http://www.w3.org/2000/svg">
<circle cx="16.6667" cy="16.6667" r="16.6667" fill="#3C666B"/>
<circle cx="23.1771" cy="21.6146" r="11.7188" fill="#EBEAE4"/>
<path d="M20.357 17.095C21.086 17.095 21.653 17.518 21.86 18.184H19.79V19.543H21.833C21.608 20.155 21.068 20.587 20.357 20.596C19.673 20.596 19.124 20.254 18.953 19.579H17.369C17.603 21.361 19.016 22.063 20.357 22.063C21.959 22.072 23.579 20.992 23.588 18.85C23.579 16.708 21.959 15.628 20.357 15.628C19.052 15.628 17.639 16.339 17.396 18.022H18.98C19.205 17.383 19.682 17.095 20.357 17.095ZM25.7153 17.14V22C26.2463 22 26.7773 22 27.3083 22V17.14H28.8473C28.8473 16.654 28.8473 16.177 28.8473 15.7H24.1673C24.1673 16.177 24.1673 16.654 24.1673 17.14H25.7153ZM35.917 18.859C35.917 14.503 29.455 14.503 29.455 18.859C29.455 23.224 35.917 23.224 35.917 18.859ZM31.111 18.859C31.111 16.591 34.27 16.591 34.27 18.859C34.27 21.145 31.111 21.145 31.111 18.859ZM38.0551 17.14V22C38.5861 22 39.1171 22 39.6481 22V17.14H41.1871C41.1871 16.654 41.1871 16.177 41.1871 15.7H36.5071C36.5071 16.177 36.5071 16.654 36.5071 17.14H38.0551ZM44.2824 18.85C44.2914 20.992 45.9114 22.072 47.5134 22.063C48.8544 22.063 50.2674 21.361 50.5014 19.579C49.9524 19.579 49.4574 19.579 48.9174 19.579C48.7464 20.254 48.1974 20.596 47.5134 20.596C46.5594 20.587 45.9474 19.777 45.9474 18.85C45.9474 17.806 46.5684 17.095 47.5134 17.095C48.1884 17.095 48.6654 17.383 48.8904 18.022C49.4394 18.022 49.9254 18.022 50.4744 18.022C50.2314 16.339 48.8184 15.628 47.5134 15.628C45.9114 15.628 44.2914 16.708 44.2824 18.85ZM55.7406 22H57.3156V21.766L54.4716 15.619H53.7786L50.9436 21.766V22H52.5186L52.8876 21.208H55.3716L55.7406 22ZM54.8496 19.831H53.4096L54.1206 18.175L54.8496 19.831ZM58.7728 22.009H58.1968V15.7C58.7458 15.7 59.2948 15.7 59.8438 15.7V18.787L63.0298 15.673H63.6148V22C63.0658 22 62.5078 22 61.9498 22V18.904L58.7728 22.009ZM60.5008 13.729C60.1858 13.747 59.8798 13.783 59.5738 13.819C59.6008 14.827 60.1678 15.358 61.1398 15.358C62.1388 15.358 62.6788 14.827 62.7148 13.819C62.4088 13.783 62.1028 13.747 61.7878 13.729C61.7338 14.107 61.4908 14.224 61.1218 14.224C60.7438 14.224 60.5278 14.062 60.5008 13.729ZM66.0923 17.14V22C66.6233 22 67.1543 22 67.6853 22V17.14H69.2243C69.2243 16.654 69.2243 16.177 69.2243 15.7H64.5443C64.5443 16.177 64.5443 16.654 64.5443 17.14H66.0923ZM74.3085 22V20.389H75.4695C78.4845 20.389 78.4845 15.709 75.4695 15.7C74.5425 15.7 73.6065 15.7 72.6975 15.7C72.6975 17.806 72.6975 19.903 72.6975 22C73.2285 22 73.7685 22 74.3085 22ZM75.4605 18.94H74.3085C74.3085 18.427 74.3085 17.653 74.3085 17.14C74.6775 17.14 75.0825 17.131 75.4605 17.14C76.3965 17.149 76.3425 18.94 75.4605 18.94ZM82.5736 22H84.1486V21.766L81.3046 15.619H80.6116L77.7766 21.766V22H79.3516L79.7206 21.208H82.2046L82.5736 22ZM81.6826 19.831H80.2426L80.9536 18.175L81.6826 19.831ZM86.1728 17.284C86.1728 17.05 86.3798 16.915 86.7308 16.915C87.4868 16.915 87.5048 18.013 86.7128 18.013H86.2898V19.327H86.7308C87.8108 19.327 87.8108 20.758 86.7308 20.758C86.2628 20.758 85.9388 20.443 85.9388 19.948H84.5258C84.5258 21.361 85.3628 22.117 86.7308 22.117C88.3508 22.117 89.1608 21.253 89.1608 20.137C89.1608 19.426 88.8908 18.922 88.2518 18.58C88.6208 18.301 88.8008 17.824 88.8008 17.41C88.8008 16.492 88.1078 15.583 86.7308 15.583C85.6328 15.583 84.6878 16.123 84.7418 17.284H86.1728ZM91.9657 22V20.389H93.1267C96.1417 20.389 96.1417 15.709 93.1267 15.7C92.1997 15.7 91.2637 15.7 90.3547 15.7C90.3547 17.806 90.3547 19.903 90.3547 22C90.8857 22 91.4257 22 91.9657 22ZM93.1177 18.94H91.9657C91.9657 18.427 91.9657 17.653 91.9657 17.14C92.3347 17.14 92.7397 17.131 93.1177 17.14C94.0537 17.149 93.9997 18.94 93.1177 18.94ZM100.231 22H101.806V21.766L98.9618 15.619H98.2688L95.4338 21.766V22H97.0088L97.3778 21.208H99.8618L100.231 22ZM99.3398 19.831H97.8998L98.6108 18.175L99.3398 19.831ZM105.396 19.327C106.278 19.327 106.287 20.56 105.396 20.56C105.018 20.56 104.613 20.56 104.244 20.56V19.327H105.396ZM104.244 17.905V17.14H107.16V15.7H102.633V22H105.405C108.42 21.991 108.42 17.905 105.405 17.905H104.244ZM114.957 18.859C114.957 14.503 108.495 14.503 108.495 18.859C108.495 23.224 114.957 23.224 114.957 18.859ZM110.151 18.859C110.151 16.591 113.31 16.591 113.31 18.859C113.31 21.145 110.151 21.145 110.151 18.859ZM117.095 17.14V22C117.626 22 118.157 22 118.688 22V17.14H120.227C120.227 16.654 120.227 16.177 120.227 15.7H115.547C115.547 16.177 115.547 16.654 115.547 17.14H117.095ZM124.849 22H126.424V21.766L123.58 15.619H122.887L120.052 21.766V22H121.627L121.996 21.208H124.48L124.849 22ZM123.958 19.831H122.518L123.229 18.175L123.958 19.831ZM132.498 15.7C131.949 15.7 131.4 15.7 130.851 15.7V17.986H128.907V15.7C128.358 15.7 127.8 15.7 127.26 15.7V22C127.8 22 128.358 22 128.907 22V19.471H130.851V22C131.4 22 131.949 22 132.498 22V15.7Z" fill="#3C666B"/>
<path d="M20.852 27.418L18.386 24.682H17.792V31C18.341 31 18.89 31 19.439 31V28.192L20.771 29.596H20.951L22.292 28.192V31C22.841 31 23.39 31 23.939 31V24.682H23.363L20.852 27.418ZM29.5492 31H31.1242V30.766L28.2802 24.619H27.5872L24.7522 30.766V31H26.3272L26.6962 30.208H29.1802L29.5492 31ZM28.6492 28.822H27.2272L27.9292 27.166L28.6492 28.822ZM36.0374 28.768C37.6304 27.688 37.1804 24.709 34.7054 24.7C33.7874 24.7 32.8514 24.7 31.9424 24.7C31.9424 26.806 31.9424 28.903 31.9424 31C32.4644 31 33.0134 31 33.5534 31V29.146H34.3904L35.4704 31H37.2704V30.766L36.0374 28.768ZM34.7054 27.697H33.5534C33.5534 27.193 33.5534 26.653 33.5534 26.14C33.9314 26.14 34.3274 26.131 34.7054 26.14C35.6234 26.149 35.5784 27.697 34.7054 27.697ZM39.1714 26.14V31C39.7024 31 40.2334 31 40.7644 31V26.14H42.3034C42.3034 25.654 42.3034 25.177 42.3034 24.7H37.6234C37.6234 25.177 37.6234 25.654 37.6234 26.14H39.1714ZM44.4141 29.074C43.8651 29.074 43.3971 29.074 42.8571 29.074C42.8211 31.846 47.9511 31.774 47.9511 29.128C47.9511 27.553 46.7271 27.391 45.4761 27.256C44.9091 27.193 44.4411 27.094 44.4771 26.617C44.5311 25.87 46.2231 25.798 46.2231 26.635C46.7721 26.635 47.1861 26.635 47.7531 26.635C47.7891 23.917 42.8931 23.917 42.9471 26.635C42.9651 28.003 43.8651 28.471 45.2331 28.57C45.8631 28.606 46.3851 28.678 46.3851 29.119C46.3851 29.857 44.4141 29.875 44.4141 29.074ZM50.25 29.074C49.701 29.074 49.233 29.074 48.693 29.074C48.657 31.846 53.787 31.774 53.787 29.128C53.787 27.553 52.563 27.391 51.312 27.256C50.745 27.193 50.277 27.094 50.313 26.617C50.367 25.87 52.059 25.798 52.059 26.635C52.608 26.635 53.022 26.635 53.589 26.635C53.625 23.917 48.729 23.917 48.783 26.635C48.801 28.003 49.701 28.471 51.069 28.57C51.699 28.606 52.221 28.678 52.221 29.119C52.221 29.857 50.25 29.875 50.25 29.074ZM55.8969 26.14V31C56.4279 31 56.9589 31 57.4899 31V26.14H59.0289C59.0289 25.654 59.0289 25.177 59.0289 24.7H54.3489C54.3489 25.177 54.3489 25.654 54.3489 26.14H55.8969ZM62.4627 29.641C61.9947 29.641 61.4997 29.389 61.4997 28.876V24.7C60.9957 24.7 60.4647 24.7 59.9607 24.7V28.903C59.9607 30.289 61.1757 31.09 62.4627 31.09C63.7587 31.09 64.9737 30.289 64.9737 28.903V24.7C64.4697 24.7 63.9297 24.7 63.4167 24.7V28.876C63.4167 29.389 62.9307 29.641 62.4627 29.641ZM68.8948 24.7H66.5188V31H68.8948C72.9988 30.982 72.9988 24.718 68.8948 24.7ZM68.1298 26.167H68.8948C70.9018 26.167 70.9018 29.533 68.8948 29.533H68.1298V26.167ZM75.0705 29.587V26.104H75.8085C75.8085 25.564 75.8085 25.231 75.8085 24.7C74.7825 24.7 73.7655 24.7 72.7395 24.7C72.7395 25.231 72.7395 25.564 72.7395 26.104H73.4775V29.587H72.6765C72.6765 30.118 72.6765 30.451 72.6765 31C73.7475 31 74.8005 31 75.8715 31C75.8715 30.451 75.8715 30.118 75.8715 29.587H75.0705ZM83 27.859C83 23.503 76.538 23.503 76.538 27.859C76.538 32.224 83 32.224 83 27.859ZM78.194 27.859C78.194 25.591 81.353 25.591 81.353 27.859C81.353 30.145 78.194 30.145 78.194 27.859ZM84.6702 31.054C85.1562 31.054 85.5522 30.73 85.5522 30.235C85.5522 29.731 85.1562 29.398 84.6702 29.398C84.1662 29.398 83.7702 29.731 83.7702 30.235C83.7702 30.73 84.1662 31.054 84.6702 31.054ZM90.8548 28.768C92.4478 27.688 91.9978 24.709 89.5228 24.7C88.6048 24.7 87.6688 24.7 86.7598 24.7C86.7598 26.806 86.7598 28.903 86.7598 31C87.2818 31 87.8308 31 88.3708 31V29.146H89.2078L90.2878 31H92.0878V30.766L90.8548 28.768ZM89.5228 27.697H88.3708C88.3708 27.193 88.3708 26.653 88.3708 26.14C88.7488 26.14 89.1448 26.131 89.5228 26.14C90.4408 26.149 90.3958 27.697 89.5228 27.697ZM95.5007 29.641C95.0327 29.641 94.5377 29.389 94.5377 28.876V24.7C94.0337 24.7 93.5027 24.7 92.9987 24.7V28.903C92.9987 30.289 94.2137 31.09 95.5007 31.09C96.7967 31.09 98.0117 30.289 98.0117 28.903V24.7C97.5077 24.7 96.9677 24.7 96.4547 24.7V28.876C96.4547 29.389 95.9687 29.641 95.5007 29.641Z" fill="#5386A4"/>
</svg>
